<svg width="584" height="483" viewBox="0 0 584 483" fill="none" xmlns="http://www.w3.org/2000/svg">
<path d="M3.58461 67.9458C19.1167 147.783 39.678 259.132 117.932 241.701C176.968 228.551 142.068 123.37 201.01 109.809C284.952 90.4972 186.798 344.424 270.131 322.643C331.456 306.615 287.859 203.003 346.021 177.766C437.423 138.104 303.761 457.234 399.825 430.894C470.533 411.506 413.556 275.844 485.609 262.242C574.683 245.428 503.254 522.276 581.898 477.061C637.722 444.966 617.936 380.966 624.921 316.196C641.917 158.59 640.157 21.1909 515.139 -75.448C349.455 -203.522 -36.6121 -138.67 3.58461 67.9458Z" fill="white"/>
</svg>
