<?xml version="1.0" standalone="no"?>
<!DOCTYPE svg PUBLIC "-//W3C//DTD SVG 20010904//EN"
 "http://www.w3.org/TR/2001/REC-SVG-20010904/DTD/svg10.dtd">
<svg version="1.0" xmlns="http://www.w3.org/2000/svg"
 width="6000.000000pt" height="6000.000000pt" viewBox="0 0 6000.000000 6000.000000"
 preserveAspectRatio="xMidYMid meet">

<g transform="translate(0.000000,6000.000000) scale(0.100000,-0.100000)"
fill="#000000" stroke="none">
<path d="M20545 50355 c-285 -63 -497 -279 -551 -561 -12 -63 -14 -241 -14
-1040 l0 -964 -2164 0 -2164 0 -63 102 c-219 357 -568 703 -921 915 -330 198
-666 319 -1048 378 -147 23 -478 31 -637 15 -847 -82 -1601 -536 -2064 -1244
-43 -65 -86 -141 -95 -169 -42 -126 21 -275 143 -337 l48 -25 1043 -3 1042 -2
0 -970 0 -970 -1037 -2 -1038 -3 -47 -23 c-130 -65 -198 -219 -153 -345 41
-117 247 -398 425 -581 636 -654 1543 -954 2435 -806 277 47 508 121 770 250
296 145 494 288 735 529 149 150 287 321 380 475 l53 86 7163 0 7163 0 48 -76
c131 -209 332 -449 500 -597 510 -449 1113 -686 1783 -701 943 -22 1837 444
2365 1233 98 147 109 172 113 262 3 61 0 86 -16 122 -28 64 -84 121 -145 148
l-52 24 -1037 3 -1038 2 0 970 0 970 1048 2 1047 3 41 22 c99 53 154 144 154
258 0 53 -6 82 -24 120 -30 65 -124 205 -216 325 -94 122 -348 376 -470 470
-436 336 -910 525 -1455 581 -150 15 -501 6 -645 -16 -791 -123 -1481 -560
-1911 -1212 -37 -57 -78 -121 -90 -143 l-23 -40 -1118 0 -1118 0 0 964 c0 789
-3 978 -14 1038 -50 259 -227 459 -481 546 l-80 27 -3255 2 c-2675 1 -3266 -1
-3315 -12z m6511 -276 c172 -32 318 -179 342 -345 4 -27 5 -663 2 -1414 l-5
-1365 -34 -70 c-64 -129 -182 -214 -326 -235 -96 -13 -6304 -13 -6400 0 -142
20 -263 108 -327 237 l-33 68 -5 1365 c-3 751 -2 1387 2 1414 24 161 162 306
328 342 76 17 6367 19 6456 3z m-13472 -1180 c694 -98 1316 -490 1704 -1074
48 -72 110 -174 137 -228 l50 -97 2252 0 2251 0 4 -282 c4 -262 6 -288 27
-353 41 -125 89 -203 181 -296 73 -73 101 -94 180 -132 174 -84 -144 -77 3465
-77 3609 0 3291 -7 3465 77 79 38 108 59 181 132 73 73 94 102 132 181 69 144
77 196 77 494 l0 256 1204 0 1204 0 57 106 c193 367 486 687 835 917 130 85
390 214 530 262 912 314 1895 90 2570 -585 122 -122 213 -233 312 -380 l71
-105 -1142 -3 -1141 -2 0 -1260 0 -1260 1140 0 c627 0 1140 -3 1140 -6 0 -3
-25 -45 -56 -92 -385 -592 -1006 -988 -1724 -1098 -161 -25 -530 -25 -690 -1
-790 121 -1445 574 -1827 1262 l-50 90 -7336 3 -7335 2 -32 -62 c-177 -340
-469 -666 -795 -887 -325 -221 -667 -352 -1080 -412 -118 -18 -500 -18 -625 0
-728 100 -1353 491 -1754 1096 l-67 100 1146 3 1145 2 -2 1258 -3 1257 -1142
3 -1143 2 47 73 c130 203 341 440 528 590 540 436 1220 623 1909 526z"/>
<path d="M21550 48365 l0 -885 145 0 145 0 0 330 0 330 113 0 c133 1 195 6
301 26 303 58 466 250 466 549 0 284 -143 458 -423 516 -79 16 -138 19 -419
19 l-328 0 0 -885z m632 634 c112 -24 189 -83 223 -173 23 -60 18 -214 -9
-266 -63 -121 -165 -164 -418 -174 l-138 -5 0 314 0 315 145 0 c79 0 168 -5
197 -11z"/>
<path d="M23080 48365 l0 -885 145 0 145 0 0 400 0 400 410 0 410 0 0 -400 0
-400 145 0 145 0 0 885 0 885 -145 0 -145 0 0 -360 0 -360 -410 0 -410 0 0
360 0 360 -145 0 -145 0 0 -885z"/>
<path d="M24950 48365 l0 -885 145 0 145 0 0 328 0 329 178 6 c283 9 433 58
558 182 103 102 144 214 144 398 0 173 -40 277 -144 375 -69 66 -157 108 -278
133 -81 16 -137 19 -420 19 l-328 0 0 -885z m701 616 c67 -26 139 -97 160
-157 7 -21 13 -73 13 -114 1 -168 -73 -261 -241 -305 -47 -13 -238 -21 -330
-16 -10 1 -13 70 -13 312 l0 311 178 -4 c152 -4 185 -8 233 -27z"/>
<path d="M46710 49760 c-1180 -73 -2232 -346 -3293 -853 -193 -93 -279 -149
-352 -230 -73 -80 -140 -215 -160 -320 -33 -172 -13 -282 86 -490 201 -424
258 -817 182 -1260 -103 -604 -513 -1151 -1073 -1432 -200 -100 -387 -158
-632 -196 -73 -11 -161 -31 -197 -46 -187 -73 -333 -226 -398 -415 -48 -141
-42 -287 38 -843 101 -702 266 -1455 455 -2067 5 -17 -543 -18 -11243 -20
l-11248 -3 -73 -23 c-299 -92 -512 -314 -582 -605 -19 -77 -20 -115 -20 -644
l0 -563 -2208 0 c-1929 0 -2220 -2 -2296 -15 -264 -46 -461 -218 -558 -485
l-23 -65 -3 -1405 c-2 -1021 0 -1421 8 -1465 48 -253 224 -454 475 -542 l80
-28 2260 -5 2260 -5 2 -5760 3 -5760 -51 -100 c-29 -55 -53 -102 -55 -104 -2
-3 -70 17 -152 42 -474 150 -942 243 -1480 292 -63 6 -73 10 -76 29 -3 11 -9
147 -16 301 -6 154 -13 309 -15 345 -3 36 -7 126 -10 200 -13 322 -19 353 -75
435 -53 78 -144 132 -237 141 -53 6 -207 -1 -994 -41 -252 -12 -269 -14 -322
-39 -70 -34 -129 -90 -163 -158 -44 -86 -44 -81 2 -977 19 -391 25 -345 -44
-360 -469 -102 -941 -257 -1368 -451 -87 -40 -165 -77 -172 -83 -7 -5 -14 -8
-16 -6 -2 2 -151 234 -331 514 -180 281 -342 526 -362 546 -19 20 -60 50 -91
65 -51 26 -67 29 -152 29 -81 0 -102 -4 -140 -24 -25 -13 -269 -167 -542 -343
-323 -207 -508 -332 -528 -356 -53 -64 -74 -120 -78 -202 -7 -134 -33 -84 412
-777 l297 -462 -249 -248 c-316 -316 -522 -556 -729 -850 -49 -69 -95 -134
-104 -145 -15 -21 -16 -21 -80 14 -35 20 -296 155 -579 301 -566 292 -586 299
-696 277 -78 -16 -147 -54 -194 -107 -20 -23 -65 -98 -100 -165 -35 -68 -157
-304 -272 -526 -114 -222 -215 -429 -224 -459 -33 -115 11 -265 101 -339 23
-20 188 -112 366 -204 178 -92 437 -225 574 -296 138 -71 258 -134 268 -140
17 -10 15 -21 -32 -177 -127 -418 -213 -846 -257 -1274 l-17 -163 -26 0 c-14
0 -114 -5 -221 -10 -184 -9 -475 -23 -765 -36 -333 -15 -379 -20 -438 -47
-108 -49 -185 -158 -195 -273 -2 -34 1 -164 7 -290 6 -126 18 -377 26 -559 18
-397 18 -399 56 -474 36 -71 91 -124 168 -159 67 -31 106 -31 596 -7 685 34
890 43 893 40 2 -2 19 -72 38 -157 92 -415 237 -857 406 -1241 33 -76 59 -139
57 -141 -2 -2 -263 -169 -579 -371 -326 -209 -593 -387 -616 -410 -62 -64 -88
-125 -92 -220 -3 -61 1 -92 15 -131 27 -68 652 -1040 700 -1086 62 -60 144
-92 233 -91 41 0 94 8 116 16 23 8 287 173 587 366 300 192 564 361 585 375
l39 25 75 -87 c253 -294 624 -639 968 -901 74 -57 136 -106 138 -110 1 -5
-139 -283 -312 -618 -174 -336 -320 -630 -325 -654 -16 -66 -13 -110 9 -183
17 -54 32 -78 78 -126 54 -56 85 -73 592 -335 294 -151 553 -280 575 -286 22
-6 72 -9 112 -6 87 6 176 49 228 109 18 22 171 308 340 636 169 328 311 601
315 605 4 4 67 -13 141 -38 395 -136 844 -241 1278 -300 95 -13 174 -25 176
-27 1 -2 5 -68 9 -148 4 -80 11 -228 16 -330 5 -102 14 -300 20 -440 17 -388
24 -453 54 -515 33 -66 100 -129 174 -163 68 -31 88 -31 577 -8 635 31 740 37
780 47 97 25 188 109 226 208 28 72 26 155 -25 1151 -7 135 -11 247 -10 248 1
2 62 15 136 28 422 78 834 198 1256 366 172 69 205 79 216 67 7 -8 154 -234
326 -504 172 -269 328 -510 347 -535 88 -119 248 -166 391 -116 51 18 1037
652 1079 694 95 95 125 271 66 386 -9 17 -161 257 -339 534 -178 277 -324 505
-324 507 0 1 57 51 128 111 170 144 570 545 718 719 66 77 164 199 218 270 55
72 101 132 103 135 4 5 145 -66 568 -285 559 -289 514 -270 619 -270 83 0 97
3 158 33 43 21 80 48 102 75 44 53 571 1074 592 1146 22 72 13 167 -21 237
-43 88 -99 129 -350 259 -127 66 -315 163 -420 217 -104 55 -232 120 -282 146
-51 25 -93 51 -93 57 0 5 11 39 24 75 l24 65 4837 3 4837 2 -6 -22 c-41 -152
-50 -227 -50 -438 0 -236 12 -320 76 -519 113 -356 373 -693 689 -894 l56 -36
6 -113 c35 -656 464 -1226 1084 -1441 54 -19 146 -46 204 -59 l104 -23 1520
-3 c1016 -2 1536 1 1568 8 131 28 262 131 323 255 135 274 -2 588 -301 686
-32 11 -338 15 -1555 19 l-1515 5 -62 23 c-140 53 -265 163 -331 291 -22 42
-43 86 -47 99 l-6 22 2268 0 c1521 0 2293 3 2343 10 169 23 354 82 512 161
167 84 267 154 412 288 137 127 244 181 399 201 40 5 379 10 754 10 l682 0 79
25 c116 36 243 127 298 210 l16 25 5562 0 c4881 0 5568 2 5612 15 33 9 72 33
112 69 111 96 236 145 367 146 106 0 203 59 253 154 l27 51 0 280 0 280 -27
51 c-50 94 -145 154 -247 154 -133 0 -264 50 -366 140 -33 29 -78 61 -100 71
-39 18 -240 19 -5597 19 l-5556 0 -46 65 c-78 108 -196 191 -332 231 -53 16
-134 18 -804 23 -733 6 -746 7 -810 28 -89 31 -180 91 -302 201 -257 233 -559
377 -895 427 -90 13 -385 15 -2328 15 l-2225 0 0 1084 c0 1008 -3 1135 -26
1209 -5 16 281 17 5921 17 6516 0 5987 -5 6144 60 239 98 408 291 489 558 16
54 17 456 22 6987 l5 6930 3915 5 c3773 5 3917 6 3970 23 189 64 341 191 422
354 84 167 79 57 76 1653 l-3 1415 -31 86 c-79 222 -264 391 -490 449 -75 20
-119 20 -1716 20 -901 0 -1638 3 -1638 8 0 4 27 40 59 79 82 101 281 364 384
509 968 1363 1649 2970 2007 4739 112 549 229 1384 215 1520 -19 171 -80 301
-199 421 -128 128 -220 171 -440 204 -380 58 -702 198 -986 427 -89 72 -257
243 -321 328 -185 241 -320 532 -379 815 -34 166 -43 282 -37 484 9 301 64
524 202 816 98 207 109 246 109 395 -1 104 -4 131 -28 200 -38 110 -103 211
-189 291 -63 59 -97 79 -282 169 -868 425 -1875 714 -2840 815 -389 41 -1049
60 -1375 40z m790 -280 c1115 -53 2143 -298 3130 -747 350 -159 408 -198 468
-311 71 -133 64 -240 -27 -425 -146 -299 -216 -555 -242 -890 -23 -311 33
-669 153 -975 189 -485 549 -900 1002 -1157 243 -137 496 -225 783 -270 176
-28 236 -52 307 -122 76 -75 130 -205 120 -294 -2 -13 -8 -73 -14 -134 -72
-713 -246 -1602 -456 -2325 -408 -1407 -1036 -2686 -1860 -3786 -138 -185
-396 -507 -425 -531 -11 -8 -516 -10 -2076 -6 l-2063 6 0 1682 c0 1680 0 1681
-21 1766 -75 299 -285 512 -597 607 -53 16 -198 17 -2037 22 l-1979 5 -19 60
c-210 688 -373 1440 -471 2175 -48 361 -58 469 -51 525 9 75 65 183 121 235
68 63 132 87 300 115 348 57 639 169 915 350 484 320 839 829 969 1390 43 187
54 294 54 520 0 382 -62 654 -225 997 -97 201 -107 299 -45 433 46 102 102
144 339 260 1220 595 2617 887 3947 825z m-1856 -8203 c172 -61 285 -174 348
-347 l23 -65 0 -1680 0 -1680 -292 -3 -292 -2 -3 482 c-3 462 -4 484 -23 517
-11 18 -36 42 -55 52 -34 19 -366 19 -12781 19 l-12747 0 -5 298 c-5 332 -10
364 -81 499 -75 141 -179 242 -321 309 -137 65 -152 67 -562 72 l-373 4 0 527
c0 333 4 549 11 587 38 208 222 391 433 429 58 11 2500 13 13356 12 l13285 -2
79 -28z m-26352 -1856 c83 -41 168 -128 206 -208 l27 -58 0 -1410 0 -1410 -32
-68 c-56 -117 -167 -207 -294 -236 -29 -7 -957 -11 -2734 -11 -2945 0 -2745
-4 -2857 57 -57 31 -138 113 -167 171 -53 103 -51 53 -51 1489 0 941 3 1348
11 1385 33 154 143 276 294 324 32 10 586 12 2785 11 l2745 -2 67 -34z m25848
-1526 l0 -394 -732 -3 -733 -3 -65 -24 c-188 -67 -321 -181 -409 -351 -82
-157 -76 -30 -76 -1620 0 -1343 1 -1418 18 -1480 47 -166 153 -312 291 -404
73 -48 128 -72 222 -96 73 -19 114 -20 781 -20 l703 0 0 -6745 0 -6745 -11467
0 -11468 0 -42 109 c-24 60 -68 165 -98 232 -43 97 -52 126 -42 135 6 7 214
142 461 300 248 159 465 303 483 322 57 57 86 126 91 219 3 57 0 95 -11 126
-8 25 -103 182 -209 349 -107 166 -239 373 -293 458 -183 288 -221 330 -332
365 -73 23 -181 17 -243 -15 -25 -12 -243 -150 -486 -306 -242 -155 -445 -284
-451 -286 -5 -2 -66 60 -135 137 -226 252 -514 523 -793 747 -113 90 -338 257
-372 277 -13 7 25 87 236 496 138 268 259 510 268 537 35 109 -8 262 -97 341
-32 28 -167 103 -414 231 l-366 188 1 5407 0 5406 82 40 c64 31 100 57 162
120 121 122 184 246 205 407 5 41 10 480 10 1006 l0 932 12660 0 12660 0 0
-395z m8958 -689 c149 -40 269 -166 301 -316 18 -82 11 -2770 -7 -2822 -21
-61 -94 -160 -147 -200 -27 -21 -75 -48 -105 -61 l-55 -22 -5180 0 -5180 0
-68 32 c-128 61 -222 180 -247 312 -14 74 -14 2669 0 2741 29 154 139 278 295
332 47 16 340 17 5195 18 4417 0 5153 -2 5198 -14z m-35028 -6777 c0 -4372 -2
-5310 -13 -5301 -7 6 -40 18 -73 27 -114 30 -247 -8 -330 -96 -23 -24 -63 -87
-90 -139 -26 -52 -56 -108 -66 -125 -17 -29 -18 173 -18 5458 l0 5487 295 0
295 0 0 -5311z m26945 -3834 l0 -6900 -22 -70 c-28 -89 -84 -176 -154 -240
-71 -65 -139 -101 -235 -125 -76 -20 -132 -20 -6067 -20 l-5989 0 -50 45 c-69
62 -214 132 -311 150 -69 13 -752 15 -5438 15 l-5358 0 -26 88 c-15 48 -33
107 -41 131 -8 25 -14 48 -14 53 0 4 5178 8 11508 8 11388 0 11507 0 11539 20
18 10 40 31 50 47 17 26 18 294 21 6865 l2 6838 293 -2 292 -3 0 -6900z
m-29983 -1102 c16 -19 16 -20 53 -843 8 -184 20 -357 26 -385 14 -71 65 -137
131 -168 44 -22 82 -28 233 -42 484 -43 963 -140 1420 -287 176 -56 233 -63
306 -35 83 32 114 76 304 447 382 744 358 700 394 700 9 0 122 -54 251 -121
609 -314 796 -412 802 -423 4 -6 8 -21 8 -32 0 -12 -120 -255 -266 -539 l-267
-516 0 -67 c-1 -110 35 -164 171 -258 404 -280 813 -646 1136 -1015 140 -160
183 -189 282 -189 36 0 79 6 97 14 18 7 230 141 472 296 549 354 519 336 549
316 13 -8 165 -234 336 -502 281 -436 312 -489 304 -512 -7 -20 -119 -96 -461
-316 -248 -160 -472 -305 -496 -322 -60 -43 -97 -118 -98 -201 -1 -55 6 -77
71 -224 93 -212 174 -421 244 -637 31 -95 56 -175 56 -177 0 -3 -307 -5 -682
-5 -774 0 -762 1 -918 -76 -130 -64 -246 -179 -308 -304 -83 -168 -76 -36 -80
-1575 -2 -985 0 -1392 8 -1450 38 -265 223 -484 485 -573 l80 -27 639 -3 638
-3 -7 -22 c-42 -134 -42 -188 2 -269 40 -73 16 -59 633 -377 537 -276 515
-263 518 -294 4 -37 -511 -1042 -547 -1065 -23 -15 -28 -14 -125 37 -432 225
-999 513 -1027 521 -85 25 -180 -1 -243 -64 -22 -23 -96 -114 -163 -201 -245
-321 -563 -657 -890 -937 -94 -81 -180 -163 -192 -181 -11 -19 -26 -57 -33
-85 -22 -99 -20 -105 358 -693 290 -451 345 -543 340 -564 -4 -17 -27 -39 -64
-62 -31 -20 -252 -162 -490 -315 -240 -154 -444 -278 -456 -278 -13 0 -30 8
-38 18 -8 9 -167 256 -353 547 -191 299 -356 546 -378 567 -81 76 -177 86
-307 32 -522 -217 -905 -335 -1403 -429 -103 -19 -205 -44 -226 -55 -47 -23
-87 -70 -114 -130 -18 -41 -19 -58 -13 -230 4 -102 9 -219 12 -260 22 -343 43
-924 34 -940 -14 -27 -20 -27 -305 -40 -275 -12 -361 -16 -635 -30 -250 -13
-257 -13 -279 9 -16 16 -19 42 -25 192 -4 96 -11 257 -16 359 -5 102 -12 235
-15 295 -18 398 -28 544 -36 577 -14 55 -68 119 -124 149 -41 22 -86 31 -260
53 -438 57 -908 169 -1314 312 -153 54 -219 58 -300 18 -32 -16 -64 -43 -82
-67 -16 -22 -93 -165 -171 -316 -77 -152 -158 -307 -178 -346 -20 -38 -97
-186 -170 -328 -83 -163 -141 -263 -156 -273 -23 -16 -39 -8 -521 240 -274
141 -513 265 -530 276 -24 14 -33 27 -33 46 0 14 142 300 320 646 179 346 326
642 332 669 15 63 -2 143 -41 196 -16 22 -98 91 -182 155 -199 150 -337 265
-531 445 -143 132 -390 390 -482 503 -49 59 -82 88 -131 111 -46 21 -134 25
-186 7 -19 -6 -303 -184 -631 -395 -385 -246 -607 -383 -623 -383 -29 0 -5
-35 -415 604 -134 209 -245 389 -247 400 -3 13 5 30 19 43 13 11 284 188 603
392 368 236 594 387 618 413 45 49 72 131 64 193 -4 23 -42 122 -86 221 -180
407 -319 836 -411 1272 -34 159 -53 206 -102 247 -81 69 -124 74 -478 55 -551
-29 -1075 -51 -1095 -46 -13 3 -26 14 -30 23 -7 18 -18 195 -29 478 -4 83 -8
175 -11 205 -2 30 -7 127 -10 215 -3 88 -8 185 -11 215 -8 82 11 101 102 107
38 2 356 17 708 34 713 33 699 31 770 109 49 54 63 106 81 294 41 426 122 839
242 1231 86 281 86 280 73 338 -15 71 -52 131 -103 165 -23 16 -224 122 -447
237 -223 114 -484 248 -580 298 -96 50 -183 97 -192 105 -21 18 -23 54 -4 85
7 12 120 231 251 487 131 256 249 480 262 498 14 18 33 32 45 32 11 0 84 -33
162 -74 78 -40 222 -115 321 -166 99 -51 300 -155 446 -231 146 -76 286 -143
312 -150 61 -15 120 -5 183 31 40 22 64 48 114 122 259 380 597 773 942 1093
157 146 184 184 195 273 11 92 33 53 -554 966 -95 148 -173 277 -173 286 0 9
10 26 23 37 20 19 914 595 964 621 16 9 28 9 45 1 14 -6 145 -201 353 -527
182 -283 343 -531 359 -549 44 -52 116 -84 186 -84 50 -1 76 7 162 46 396 181
591 258 882 350 175 55 445 126 615 161 111 24 176 63 217 131 17 29 34 69 37
90 5 31 -7 375 -27 743 -3 52 -8 158 -11 235 -3 77 -8 170 -11 206 -8 108 -10
107 236 119 323 15 455 22 605 30 77 4 192 8 256 8 99 2 118 -1 131 -15z
m17161 -6352 c109 -43 205 -139 249 -248 l23 -58 3 -1354 c1 -895 -1 -1373 -8
-1410 -24 -130 -107 -238 -228 -298 l-76 -38 -6231 0 -6230 0 -65 32 c-83 41
-162 120 -203 203 l-32 65 0 1410 0 1410 33 68 c60 121 175 211 303 236 25 5
2779 8 6224 7 l6180 -1 58 -24z m5152 -2804 c284 -70 476 -174 702 -380 120
-109 225 -175 354 -222 52 -19 89 -34 82 -35 -24 0 -176 60 -242 96 -76 42
-177 117 -204 151 -10 13 -23 20 -29 17 -7 -4 -8 -2 -4 4 7 11 -32 38 -47 34
-5 -1 -6 1 -3 6 3 5 -3 15 -12 23 -37 32 -129 99 -135 99 -4 0 -7 -522 -7
-1160 l0 -1161 61 42 c33 22 91 69 127 104 95 89 144 128 215 171 34 21 65 43
70 50 4 7 14 11 21 8 8 -3 27 2 41 12 15 10 35 19 44 20 9 1 52 11 96 23 44
11 94 20 110 19 l30 -1 -30 -4 c-79 -11 -198 -47 -273 -83 -115 -55 -173 -95
-288 -201 -213 -195 -429 -307 -699 -361 -98 -19 -140 -20 -2465 -19 -1301 1
-2392 4 -2424 8 l-59 6 6 -149 c6 -157 18 -224 64 -334 126 -303 386 -500 713
-540 54 -6 604 -10 1520 -10 l1436 0 54 -32 c91 -56 123 -151 81 -243 -23 -51
-80 -101 -130 -115 -28 -7 -497 -10 -1533 -7 -1481 3 -1494 3 -1578 24 -421
105 -739 356 -919 727 -93 192 -122 322 -128 588 l-5 207 -82 46 c-180 101
-362 265 -474 428 -113 164 -197 378 -228 582 -28 181 -10 439 43 605 l18 55
465 6 c498 6 491 5 637 63 205 80 370 294 408 528 7 43 13 81 14 83 0 3 1 59
1 125 l0 120 2258 -3 c2096 -3 2262 -4 2327 -20z m1324 -653 c8 -7 -83 -3
-129 6 -33 6 -22 7 40 3 47 -3 87 -7 89 -9z m74 -11 c-13 -2 -33 -2 -45 0 -13
2 -3 4 22 4 25 0 35 -2 23 -4z m1265 0 c-15 -2 -42 -2 -60 0 -18 2 -6 4 27 4
33 0 48 -2 33 -4z m92 -23 c81 -41 149 -136 165 -227 l7 -43 5622 0 5622 0 69
-55 c129 -103 267 -158 432 -173 l78 -7 0 -200 0 -200 -75 -7 c-167 -16 -308
-73 -434 -173 l-69 -55 -5627 0 -5627 0 -11 -38 c-28 -92 -115 -179 -205 -203
-53 -14 -57 -5 -5 11 53 17 100 48 92 61 -3 5 0 8 8 7 7 -2 12 3 11 9 -2 7 2
12 9 10 6 -1 24 19 40 44 45 71 50 140 46 618 l-3 426 -30 54 c-37 67 -88 119
-140 142 -22 10 -34 18 -27 18 7 1 30 -8 52 -19z m-2200 -1754 c0 -2 -7 -7
-16 -10 -8 -3 -12 -2 -9 4 6 10 25 14 25 6z"/>
<path d="M44830 35513 l0 -908 145 0 145 0 0 408 0 407 420 0 420 0 0 -403 c0
-222 2 -406 4 -408 2 -2 70 -3 150 -1 l146 3 0 905 0 904 -150 0 -150 0 0
-370 0 -370 -420 0 -420 0 0 370 0 370 -145 0 -145 0 0 -907z"/>
<path d="M46530 36295 l0 -125 268 -2 267 -3 3 -777 2 -778 145 0 145 0 2 778
3 777 268 3 267 2 0 125 0 125 -685 0 -685 0 0 -125z"/>
<path d="M48180 35513 l0 -908 132 2 133 2 -2 633 c0 348 -5 688 -10 756 -4
67 -5 122 -2 122 4 0 23 -48 44 -107 87 -254 289 -837 325 -938 21 -60 65
-188 99 -284 33 -95 62 -175 63 -177 2 -1 62 -4 133 -5 l130 -1 271 751 c148
413 274 754 278 758 5 5 6 -26 2 -67 -3 -41 -9 -382 -13 -757 l-6 -683 147 0
146 0 0 905 0 905 -212 -2 -213 -3 -39 -110 c-295 -825 -473 -1312 -481 -1313
-5 -1 -122 319 -259 713 l-249 715 -209 0 -208 0 0 -907z"/>
<path d="M50530 35515 l0 -905 530 -2 530 -3 0 128 0 127 -385 0 -385 0 0 780
0 780 -145 0 -145 0 0 -905z"/>
<path d="M51916 36378 c-3 -24 -13 -137 -22 -253 -8 -115 -22 -289 -30 -385
-7 -96 -14 -183 -14 -192 0 -11 24 -31 65 -53 63 -35 65 -36 122 -25 280 52
472 22 576 -89 56 -60 72 -106 72 -211 0 -151 -51 -243 -168 -299 -170 -83
-445 -56 -699 67 -5 2 -8 -55 -8 -128 l0 -131 53 -24 c165 -76 480 -97 680
-45 216 55 369 199 423 400 27 99 25 275 -4 366 -41 133 -133 240 -254 297
-126 60 -303 80 -473 54 -55 -9 -100 -15 -101 -14 -1 1 7 88 17 192 10 105 18
205 18 223 l1 32 345 0 345 0 0 130 0 130 -469 0 -470 0 -5 -42z"/>
<path d="M15700 20133 c-748 -72 -1390 -426 -1831 -1011 -442 -583 -608 -1342
-454 -2072 141 -668 582 -1283 1175 -1640 445 -268 1000 -402 1500 -361 362
30 674 119 986 280 255 132 451 279 659 492 205 210 332 391 460 654 561 1150
187 2526 -880 3240 -341 228 -749 372 -1174 415 -95 9 -358 11 -441 3z m395
-288 c277 -19 612 -117 874 -256 563 -300 982 -839 1135 -1460 47 -193 60
-308 60 -534 0 -210 -12 -331 -49 -495 -120 -524 -418 -989 -835 -1304 -343
-259 -734 -413 -1159 -457 -139 -14 -415 -6 -556 16 -391 62 -775 231 -1080
476 -177 142 -379 371 -503 572 -274 440 -388 977 -317 1492 148 1073 1024
1886 2105 1955 113 7 145 6 325 -5z"/>
<path d="M29736 18470 c-113 -34 -133 -219 -31 -286 37 -24 139 -24 183 0 98
52 91 230 -10 276 -45 21 -94 24 -142 10z"/>
<path d="M26718 18410 c-131 -23 -260 -89 -327 -165 -19 -22 -48 -69 -65 -105
-30 -63 -31 -70 -31 -201 l0 -135 38 -77 c65 -132 179 -223 387 -310 308 -129
392 -201 394 -338 2 -113 -78 -204 -202 -230 -138 -28 -395 6 -563 75 -35 15
-68 28 -72 29 -4 1 -8 -59 -8 -133 l0 -135 43 -19 c117 -52 333 -82 509 -72
270 16 453 116 537 294 32 68 36 85 40 183 11 274 -97 398 -497 566 -220 92
-299 155 -322 258 -23 104 20 195 116 245 38 19 67 25 141 28 113 5 196 -8
337 -55 59 -20 109 -34 111 -32 2 2 24 54 49 116 l45 112 -78 30 c-127 50
-249 73 -400 77 -74 1 -156 -1 -182 -6z"/>
<path d="M21888 17468 l-3 -923 -27 -57 c-19 -40 -38 -65 -69 -85 -39 -26 -50
-28 -138 -28 -53 0 -113 4 -133 8 l-38 8 0 -121 0 -120 28 -11 c15 -6 70 -13
122 -16 290 -17 466 101 531 355 18 72 19 118 19 994 l0 918 -145 0 -145 0 -2
-922z"/>
<path d="M31744 18119 l-49 -142 -97 -51 -98 -51 0 -62 0 -63 90 0 90 0 0
-387 c0 -223 5 -416 11 -453 21 -132 92 -236 189 -279 104 -45 260 -51 413
-14 l67 16 0 109 c0 59 -1 108 -3 108 -1 0 -34 -7 -72 -15 -39 -8 -92 -15
-118 -15 -88 0 -168 51 -187 119 -6 21 -10 199 -10 424 l0 387 190 0 190 0 0
105 0 105 -190 0 -190 0 0 150 0 150 -89 0 -88 0 -49 -141z"/>
<path d="M22910 17980 c-95 -12 -186 -34 -271 -66 -110 -41 -107 -35 -59 -144
23 -52 43 -97 45 -98 2 -2 44 13 94 33 202 80 375 85 458 12 49 -43 72 -101
80 -197 6 -74 5 -80 -13 -80 -131 -2 -397 -23 -459 -35 -210 -44 -328 -133
-372 -284 -22 -76 -14 -226 16 -304 28 -72 102 -149 173 -182 113 -51 284 -57
421 -15 73 23 169 88 212 144 15 20 31 36 36 36 4 0 20 -40 35 -90 l27 -90
104 0 104 0 -3 513 c-3 502 -4 513 -26 580 -33 97 -90 163 -180 208 -109 55
-268 77 -422 59z m340 -820 c0 -165 -53 -260 -178 -318 -50 -23 -70 -27 -157
-27 -87 0 -105 3 -137 23 -58 36 -82 84 -82 162 1 185 119 245 512 259 l42 1
0 -100z"/>
<path d="M25440 17979 c-124 -15 -307 -68 -354 -102 -16 -12 -14 -19 26 -107
23 -52 43 -97 44 -99 2 -1 45 13 96 32 158 61 265 78 359 58 118 -26 167 -91
177 -237 4 -77 3 -84 -14 -84 -150 -3 -398 -23 -471 -39 -96 -21 -189 -61
-246 -106 -161 -129 -170 -442 -18 -594 86 -86 234 -124 407 -103 129 15 216
56 298 142 32 33 61 58 65 56 4 -3 18 -43 31 -90 l24 -86 103 0 103 0 0 489
c0 286 -4 510 -10 541 -40 210 -189 318 -460 333 -47 3 -119 1 -160 -4z m348
-817 c-3 -54 -11 -115 -18 -137 -40 -135 -183 -223 -344 -213 -137 9 -196 66
-196 190 0 89 28 142 99 185 76 46 182 64 415 71 l49 2 -5 -98z"/>
<path d="M28085 17984 c-130 -19 -173 -30 -242 -63 -229 -111 -341 -346 -327
-687 9 -231 67 -380 194 -498 113 -104 225 -140 435 -140 152 0 218 11 307 51
l58 26 0 123 c0 68 -1 124 -3 124 -2 0 -26 -11 -54 -24 -90 -44 -169 -60 -293
-60 -106 -1 -119 1 -166 26 -87 46 -141 123 -169 240 -19 80 -19 272 -1 359
56 260 254 347 559 243 39 -13 72 -23 74 -21 9 10 83 220 79 226 -7 10 -127
48 -191 60 -62 12 -220 21 -260 15z"/>
<path d="M29317 17980 c-113 -20 -242 -108 -308 -210 -18 -27 -35 -47 -39 -45
-4 3 -15 56 -25 120 l-17 115 -114 0 -114 0 0 -670 0 -670 145 0 145 0 0 383
c0 215 5 401 10 425 27 114 97 204 198 254 64 32 71 33 184 33 65 0 118 2 118
5 1 3 7 59 15 125 7 66 10 123 7 127 -12 11 -155 17 -205 8z"/>
<path d="M30804 17976 c-98 -19 -184 -66 -249 -138 -29 -33 -55 -56 -58 -51
-2 4 -13 45 -22 91 l-18 83 -114 -3 -113 -3 -3 -967 -2 -968 143 0 142 0 -1
303 c0 166 -4 334 -8 372 -5 39 -6 74 -3 78 2 5 30 -16 61 -46 66 -66 135
-103 228 -122 249 -53 465 48 572 267 50 102 68 171 81 310 25 260 -35 510
-154 644 -113 128 -296 185 -482 150z m161 -250 c90 -41 153 -138 176 -271 18
-105 7 -326 -20 -405 -58 -170 -177 -248 -337 -222 -145 24 -215 94 -255 252
-9 36 -14 113 -14 225 0 150 3 179 23 244 29 92 92 161 168 185 79 24 199 20
259 -8z"/>
<path d="M23617 17945 c3 -9 117 -310 253 -668 l248 -652 158 0 158 0 248 650
c136 358 250 658 254 668 5 16 -5 17 -146 15 l-152 -3 -114 -325 c-169 -482
-193 -555 -219 -664 -14 -54 -26 -101 -29 -103 -3 -3 -8 12 -11 33 -12 75 -76
273 -213 664 l-139 395 -151 3 c-136 2 -151 1 -145 -13z"/>
<path d="M29660 17958 c0 -2 -1 -303 -3 -671 l-2 -667 143 0 142 0 0 670 0
670 -140 0 c-77 0 -140 -1 -140 -2z"/>
<path d="M33943 16138 c-100 -55 -153 -138 -153 -243 0 -109 59 -200 160 -248
l45 -22 1760 0 1760 0 45 21 c178 84 214 318 69 448 -28 25 -67 50 -87 56 -25
6 -632 10 -1797 10 l-1760 0 -42 -22z"/>
<path d="M33980 15215 c-107 -33 -180 -137 -180 -258 0 -80 21 -131 83 -194
76 -79 -78 -74 1897 -71 l1765 3 47 27 c159 94 184 307 50 434 -79 75 94 69
-1862 71 -1482 1 -1762 0 -1800 -12z"/>
<path d="M33962 14298 c-56 -27 -108 -80 -134 -136 -17 -38 -20 -60 -16 -122
7 -113 52 -181 153 -231 l50 -24 1750 0 c1372 0 1759 3 1791 13 50 15 137 89
130 109 -3 8 -1 11 4 8 6 -4 19 15 30 40 54 127 -6 282 -136 345 -40 20 -64
20 -1810 20 -1768 -1 -1769 -1 -1812 -22z"/>
<path d="M11820 34184 c-118 -24 -236 -51 -261 -60 -142 -46 -247 -180 -265
-337 -5 -45 20 -204 52 -331 5 -20 -3 -27 -78 -63 -46 -22 -114 -59 -153 -81
l-70 -41 -50 57 c-123 141 -180 193 -242 224 -115 56 -278 48 -381 -21 -69
-45 -372 -321 -406 -368 -68 -98 -90 -212 -62 -323 23 -87 47 -126 165 -258
56 -62 101 -115 101 -118 0 -3 -22 -37 -48 -77 -27 -40 -65 -100 -86 -134 -21
-35 -40 -63 -43 -63 -3 0 -73 22 -156 49 -186 60 -218 65 -308 46 -120 -24
-214 -93 -266 -192 -17 -32 -63 -155 -102 -274 -62 -190 -71 -226 -71 -291 0
-155 77 -285 210 -353 19 -10 105 -42 190 -70 85 -29 154 -57 153 -62 -1 -4
-5 -74 -8 -153 -4 -80 -9 -147 -11 -148 -1 -2 -76 -19 -165 -38 -90 -19 -188
-46 -219 -60 -112 -51 -199 -169 -219 -296 -12 -73 -10 -93 49 -373 48 -227
73 -287 152 -361 115 -108 225 -125 469 -75 85 18 162 34 171 37 16 5 40 -36
156 -267 1 -3 -59 -59 -133 -125 -75 -65 -147 -135 -160 -154 -72 -104 -92
-229 -56 -348 25 -82 49 -115 233 -323 194 -217 259 -255 427 -247 124 6 180
36 350 188 l133 120 37 -29 c20 -16 75 -54 124 -85 48 -31 87 -61 87 -68 0 -6
-25 -86 -56 -177 -54 -160 -55 -169 -52 -256 4 -107 32 -177 99 -250 63 -68
103 -88 351 -172 212 -72 228 -76 313 -76 106 -1 174 21 246 80 75 61 109 121
170 302 l56 166 105 -3 c57 -2 129 -7 158 -10 l54 -7 36 -170 c20 -93 46 -192
60 -220 56 -115 189 -203 320 -213 55 -4 111 4 277 38 114 23 235 50 268 61
76 24 149 79 198 149 76 109 84 209 37 431 -17 78 -27 146 -23 149 4 4 51 27
103 50 52 23 115 54 139 68 l44 26 36 -40 c20 -22 73 -81 119 -132 63 -70 97
-98 145 -122 120 -58 233 -61 352 -6 51 23 212 158 376 314 115 109 153 208
137 356 -10 97 -41 153 -158 284 -60 69 -98 118 -93 125 4 7 30 44 58 82 28
39 68 98 90 131 l39 61 130 -45 c118 -41 141 -45 226 -46 87 -1 101 2 160 30
78 37 133 83 172 143 15 25 65 155 109 290 79 237 81 248 77 321 -8 139 -91
270 -207 328 -31 15 -105 43 -165 62 l-108 34 7 86 c4 47 10 127 14 179 l6 95
130 28 c71 15 153 39 181 53 120 59 204 187 212 324 5 103 -73 495 -118 588
-40 80 -128 163 -207 193 -91 35 -151 36 -298 6 -78 -16 -131 -22 -133 -17 -2
6 -38 80 -81 166 l-78 155 93 81 c95 83 142 144 167 215 36 100 29 213 -18
309 -14 29 -96 131 -195 242 -162 182 -174 194 -247 230 -73 36 -82 38 -172
38 -87 0 -102 -3 -162 -31 -40 -19 -102 -64 -158 -113 -51 -44 -96 -81 -100
-81 -4 0 -36 21 -72 46 -35 25 -101 68 -146 95 -46 28 -83 54 -83 58 0 4 16
54 37 112 32 92 36 116 37 204 1 110 -13 153 -76 241 -57 80 -125 115 -381
199 -206 68 -239 77 -307 76 -111 0 -189 -32 -273 -109 -60 -57 -79 -93 -132
-247 -25 -72 -46 -119 -53 -117 -7 1 -87 5 -177 9 -138 5 -165 9 -169 22 -3 9
-17 69 -30 134 -29 138 -51 188 -111 255 -50 56 -118 95 -200 117 -82 21 -102
19 -345 -31z m308 -258 c15 -8 33 -25 40 -38 7 -12 32 -122 57 -242 25 -121
50 -225 56 -232 8 -10 65 -13 232 -13 122 1 263 -4 312 -10 193 -25 219 -25
236 -5 9 11 47 111 84 223 44 133 76 213 91 228 44 44 63 41 296 -36 239 -79
258 -91 258 -160 0 -20 -30 -126 -66 -235 -41 -126 -63 -208 -59 -223 4 -16
25 -33 68 -54 154 -77 329 -190 468 -300 53 -42 96 -69 111 -69 16 0 72 43
181 140 86 77 166 144 176 150 25 13 77 13 101 0 16 -9 222 -233 293 -318 31
-38 36 -94 12 -129 -8 -11 -84 -82 -169 -158 -85 -75 -157 -143 -160 -152 -12
-29 -5 -47 45 -125 76 -119 161 -287 220 -437 40 -100 59 -136 76 -144 18 -8
68 -1 225 32 231 47 255 49 291 21 32 -26 38 -43 87 -282 38 -183 40 -199 26
-232 -8 -19 -25 -41 -38 -49 -12 -9 -117 -34 -233 -58 -176 -35 -214 -46 -232
-65 -21 -22 -22 -33 -22 -206 -1 -186 -7 -267 -37 -441 -16 -92 -16 -98 1
-117 10 -11 103 -48 230 -90 309 -103 302 -89 205 -385 -60 -182 -75 -217
-101 -239 -19 -17 -43 -26 -64 -26 -18 0 -129 32 -246 70 -117 39 -220 70
-229 70 -23 0 -39 -20 -96 -120 -71 -125 -153 -246 -254 -372 -50 -62 -90
-120 -90 -129 0 -21 42 -73 204 -254 132 -147 149 -179 127 -233 -11 -26 -298
-292 -345 -319 -12 -7 -34 -12 -51 -12 -16 0 -39 5 -51 12 -11 7 -96 96 -188
200 -135 151 -173 187 -193 187 -14 0 -54 -18 -88 -39 -93 -59 -296 -158 -425
-208 -174 -67 -165 -35 -101 -347 73 -356 84 -336 -240 -401 -188 -38 -217
-42 -244 -31 -56 24 -62 41 -118 309 -37 176 -60 263 -72 277 -17 18 -31 20
-179 20 -166 0 -276 9 -430 35 -79 14 -91 14 -111 1 -18 -12 -42 -73 -110
-276 -95 -284 -104 -300 -174 -300 -53 0 -430 128 -458 156 -45 45 -42 60 50
339 48 143 87 268 87 277 0 20 -41 52 -135 103 -101 56 -225 139 -339 228 -66
51 -109 77 -126 77 -19 0 -77 -46 -232 -184 -114 -101 -219 -187 -234 -190
-57 -15 -80 1 -206 142 -67 75 -134 151 -150 168 -16 17 -32 44 -37 60 -17 63
-2 82 219 279 178 159 210 191 210 215 0 17 -23 64 -56 116 -66 104 -155 281
-209 412 -21 52 -47 98 -57 103 -14 8 -89 -4 -293 -46 -258 -53 -275 -55 -308
-41 -20 8 -42 27 -50 43 -8 15 -34 124 -58 241 -42 206 -42 213 -26 247 10 21
30 41 49 50 18 8 121 33 228 54 278 57 296 61 315 75 15 11 17 34 16 212 -1
109 4 240 9 289 24 206 24 219 4 236 -11 9 -127 52 -258 95 -254 83 -291 103
-301 157 -7 41 124 439 156 473 43 46 69 42 334 -46 203 -68 251 -80 270 -72
14 7 41 47 73 110 67 133 147 261 243 389 44 58 79 111 79 117 0 19 -28 55
-155 196 -195 218 -195 218 -195 264 0 24 8 50 18 62 42 52 334 302 358 307
61 11 84 -6 253 -198 189 -213 184 -211 280 -146 111 75 298 177 425 231 80
34 134 63 143 77 13 20 10 44 -31 243 -25 122 -46 235 -46 251 0 17 11 41 28
60 27 30 41 35 228 74 223 48 253 51 292 31z"/>
<path d="M12245 32424 c-630 -98 -1163 -552 -1364 -1164 -64 -195 -75 -272
-75 -525 -1 -205 2 -242 23 -340 73 -343 219 -622 450 -858 446 -458 1080
-631 1695 -463 636 175 1111 700 1232 1361 23 123 26 440 6 555 -87 495 -344
895 -747 1166 -214 142 -448 232 -715 274 -92 14 -398 11 -505 -6z m535 -289
c481 -94 886 -427 1060 -870 218 -559 89 -1155 -340 -1568 -118 -114 -209
-179 -350 -250 -389 -196 -870 -198 -1265 -7 -280 135 -536 394 -664 671 -50
109 -97 256 -118 372 -23 127 -23 371 0 497 56 302 202 569 430 786 219 210
493 340 807 384 93 13 340 4 440 -15z"/>
<path d="M50401 31339 c-357 -38 -700 -180 -978 -405 -320 -260 -540 -610
-638 -1016 -44 -181 -46 -244 -43 -1148 l3 -855 27 -58 c31 -66 112 -156 173
-192 60 -34 146 -55 232 -55 l73 0 0 -907 0 -908 -60 3 -60 4 -2 -253 -3 -252
-62 -13 c-154 -31 -279 -149 -318 -300 -13 -51 -15 -412 -15 -3041 0 -3209 -2
-3075 50 -3296 83 -358 303 -723 578 -962 545 -475 1298 -594 1958 -311 519
223 914 683 1057 1231 59 226 56 31 59 3325 l3 3025 -22 57 c-52 138 -170 244
-300 272 l-33 8 0 255 0 254 -62 -2 -63 -3 0 905 0 904 88 7 c162 12 284 94
355 237 l37 75 0 885 c0 931 0 921 -46 1117 -84 356 -294 708 -568 951 -391
346 -911 515 -1420 462z m459 -304 c123 -21 308 -83 423 -141 436 -219 727
-598 838 -1089 23 -99 23 -110 26 -952 4 -944 8 -892 -60 -933 -31 -20 -62
-20 -1500 -20 -1358 0 -1471 1 -1497 17 -65 38 -62 -11 -58 948 5 971 0 904
78 1136 161 482 576 870 1070 1002 83 22 127 31 275 51 61 9 313 -3 405 -19z
m810 -4580 l0 -925 -1065 0 -1065 0 0 925 0 925 1065 0 1065 0 0 -925z m402
-1461 c18 -9 42 -28 53 -42 20 -27 20 -45 23 -2992 3 -2701 1 -2976 -13 -3085
-15 -106 -32 -187 -63 -290 -22 -71 -88 -217 -137 -300 -229 -391 -606 -657
-1060 -751 -112 -24 -449 -26 -560 -5 -445 85 -817 334 -1057 707 -78 122
-163 322 -196 466 -49 208 -47 70 -47 3233 0 2968 0 2970 20 3005 12 19 36 43
55 52 33 17 125 18 1492 18 1309 0 1461 -2 1490 -16z"/>
<path d="M49660 26425 l0 -165 280 0 280 0 0 165 0 165 -280 0 -280 0 0 -165z"/>
<path d="M50980 26425 l0 -165 280 0 280 0 0 165 0 165 -280 0 -280 0 0 -165z"/>
</g>
</svg>
