<?xml version="1.0" standalone="no"?>
<!DOCTYPE svg PUBLIC "-//W3C//DTD SVG 20010904//EN"
 "http://www.w3.org/TR/2001/REC-SVG-20010904/DTD/svg10.dtd">
<svg version="1.0" xmlns="http://www.w3.org/2000/svg"
 width="5209.000000pt" height="5210.000000pt" viewBox="0 0 5209.000000 5210.000000"
 preserveAspectRatio="xMidYMid meet">

<g transform="translate(0.000000,5210.000000) scale(0.100000,-0.100000)"
fill="#000000" stroke="none">
<path d="M20595 45060 c-104 -26 -554 -137 -1000 -245 -445 -109 -818 -202
-827 -207 -25 -12 -23 -37 13 -183 17 -70 29 -128 27 -130 -2 -1 -111 -29
-243 -60 -132 -32 -244 -61 -248 -65 -4 -4 28 -155 72 -335 45 -180 81 -334
81 -341 0 -8 6 -14 13 -14 6 0 120 27 252 59 132 33 243 56 246 53 4 -4 20
-65 37 -136 17 -71 37 -136 46 -144 14 -14 31 -12 172 21 86 21 158 36 159 35
3 -3 14 -464 16 -650 1 -64 -1 -121 -5 -126 -3 -5 -100 -10 -223 -11 -177 -2
-222 -5 -242 -18 l-23 -15 6 -296 c3 -164 9 -408 12 -544 l7 -248 -190 0
c-208 0 -258 -9 -320 -56 -21 -16 -46 -50 -60 -81 l-25 -55 6 -291 c3 -161 8
-384 11 -497 3 -113 7 -326 10 -475 6 -291 11 -548 21 -962 6 -237 5 -263 -10
-263 -9 0 -118 -29 -243 -65 -642 -185 -1264 -421 -1836 -698 -103 -49 -188
-88 -190 -86 -2 2 -81 217 -175 476 -184 507 -190 529 -153 602 42 80 32 76
946 410 474 173 874 324 891 337 41 30 74 99 74 152 0 52 -82 284 -117 330
-13 18 -42 41 -64 53 -83 42 -67 47 -964 -282 -782 -286 -834 -303 -895 -302
-37 0 -81 8 -103 17 -50 22 -114 81 -136 125 -24 46 -95 241 -90 245 2 1 467
171 1033 377 812 295 1030 378 1036 394 10 25 -10 59 -36 63 -16 2 -449 -153
-1803 -649 -135 -49 -250 -89 -257 -89 -6 0 -29 46 -49 103 -21 56 -50 137
-66 180 -16 42 -27 77 -25 77 20 0 2062 753 2068 763 13 21 9 43 -12 62 -19
18 -47 8 -1051 -358 -568 -207 -1035 -375 -1039 -372 -9 5 -134 354 -129 359
2 1 459 168 1014 370 556 203 1020 374 1033 382 37 24 24 84 -19 84 -10 0
-129 -41 -266 -91 -197 -72 -1214 -443 -1709 -624 l-92 -33 -66 181 c-36 99
-64 182 -63 184 2 1 462 170 1023 374 560 204 1028 380 1038 390 16 15 18 22
9 42 -6 13 -20 26 -30 29 -11 3 -467 -158 -1043 -368 -564 -206 -1027 -374
-1030 -374 -6 0 -130 339 -130 355 0 6 121 54 268 107 1203 438 1776 649 1788
659 18 15 18 53 -1 69 -9 7 -27 10 -43 7 -15 -4 -481 -172 -1037 -375 -729
-267 -1012 -366 -1017 -357 -12 21 -129 348 -125 351 2 2 374 139 828 304 453
166 914 334 1024 374 158 58 203 78 212 97 13 25 3 53 -22 63 -8 3 -479 -164
-1046 -370 -566 -207 -1032 -375 -1034 -373 -2 2 -32 84 -68 182 -64 175 -64
178 -43 186 11 5 413 151 891 326 1166 425 1137 414 1152 427 28 23 9 78 -28
78 -9 0 -473 -166 -1031 -369 -557 -204 -1019 -371 -1026 -373 -9 -2 -35 54
-79 175 -36 98 -63 180 -61 182 3 3 461 171 1019 375 558 203 1021 373 1029
378 23 14 19 73 -5 82 -15 6 -304 -96 -1045 -366 -564 -206 -1028 -374 -1032
-374 -9 0 -66 161 -70 201 -6 51 10 129 37 174 33 56 71 90 135 119 30 13 397
149 815 301 418 152 776 283 795 291 80 34 136 128 123 209 -3 19 -25 88 -48
152 -46 127 -86 186 -141 209 -80 34 -63 39 -1270 -401 -627 -229 -1157 -425
-1179 -436 -100 -52 -176 -143 -215 -260 -18 -54 -21 -79 -17 -159 4 -91 9
-108 110 -380 58 -157 296 -809 530 -1450 904 -2477 1550 -4249 1582 -4337
l34 -92 -157 -97 c-499 -311 -1015 -686 -1430 -1040 -42 -36 -79 -61 -82 -57
-4 5 -179 339 -390 743 -211 404 -408 782 -438 840 -30 58 -61 115 -68 127
-13 21 -91 569 -149 1048 -9 72 -18 146 -20 165 -48 393 -91 1008 -82 1195 4
84 11 118 45 215 141 399 77 951 -172 1465 -73 150 -171 318 -248 424 -495
675 -1187 1021 -1718 859 -330 -101 -554 -386 -625 -793 -108 -622 183 -1429
715 -1979 203 -210 400 -358 615 -462 175 -84 330 -129 525 -149 l55 -6 47
-107 c90 -204 163 -457 228 -781 45 -230 76 -440 126 -871 2 -25 13 -151 23
-280 19 -233 17 -260 -13 -260 -6 0 -119 64 -251 143 -792 472 -1259 817
-1503 1112 -41 49 -79 93 -85 96 -6 4 -2 18 10 35 31 44 78 141 102 213 183
535 40 1235 -380 1858 -286 423 -716 768 -1114 893 l-70 22 -65 101 c-85 132
-260 310 -387 395 -153 101 -272 149 -438 178 -189 34 -310 -8 -310 -107 0
-21 7 -45 15 -53 9 -7 60 -19 118 -25 241 -28 406 -100 556 -240 56 -53 162
-199 152 -209 -3 -2 -25 -6 -48 -9 -89 -9 -206 -44 -293 -88 -254 -128 -415
-360 -491 -706 -29 -128 -26 -490 4 -650 164 -870 800 -1663 1532 -1910 414
-139 1138 -577 2293 -1385 l99 -69 633 -895 633 -894 -101 -109 c-132 -142
-274 -302 -402 -452 -110 -131 -339 -416 -358 -447 -7 -11 -57 -42 -112 -69
-55 -27 -129 -71 -166 -98 -89 -68 -208 -194 -249 -266 -66 -115 -150 -185
-257 -214 -61 -17 -221 -15 -348 4 -143 21 -404 88 -635 164 -306 99 -406 116
-690 115 -243 0 -362 -14 -575 -69 -490 -125 -827 -386 -946 -733 -118 -343 4
-796 310 -1148 140 -162 314 -291 563 -417 167 -85 225 -125 297 -202 64 -71
107 -146 125 -221 8 -32 17 -131 20 -220 14 -352 78 -632 202 -874 66 -128
129 -214 229 -309 l76 -72 -45 -227 c-45 -228 -95 -523 -116 -682 -6 -47 -13
-96 -15 -110 -9 -48 -54 -486 -65 -625 -17 -220 -28 -446 -29 -620 -1 -88 -4
-176 -7 -195 -5 -34 12 -729 20 -800 2 -19 7 -84 11 -145 12 -217 50 -579 90
-861 343 -2408 1416 -4637 3091 -6419 78 -82 245 -252 372 -377 l231 -227 -58
-173 c-300 -882 -769 -1896 -1346 -2908 -472 -830 -988 -1624 -1719 -2649
l-89 -123 -91 -43 c-135 -64 -132 -63 -139 -13 -4 33 -15 51 -43 77 l-36 33
-142 -4 c-112 -4 -167 -12 -266 -36 -227 -56 -447 -140 -719 -277 -260 -130
-273 -165 -187 -508 256 -1025 801 -1926 1341 -2218 263 -142 571 -151 706
-20 67 65 68 80 20 311 -74 356 -75 368 -75 670 -1 345 14 446 120 817 42 147
40 178 -18 234 l-40 38 22 31 c25 35 24 35 54 15 12 -8 42 -18 67 -21 51 -7
106 12 399 136 1063 449 1969 1047 2749 1815 326 321 551 576 799 903 105 139
118 152 141 148 57 -11 293 -36 401 -42 63 -3 129 -7 145 -9 17 -2 59 -4 95
-4 l65 -1 -57 -458 c-80 -648 -97 -779 -118 -964 -31 -261 -239 -2029 -245
-2073 -2 -22 -23 -191 -45 -375 -53 -446 -105 -849 -141 -1102 -16 -114 -29
-229 -29 -255 0 -59 35 -136 82 -181 35 -33 35 -33 26 -90 -19 -122 -99 -377
-127 -405 -5 -5 -18 5 -30 22 -29 40 -85 58 -135 41 -68 -22 -192 -198 -281
-399 -85 -193 -192 -547 -226 -752 -11 -69 -11 -82 5 -123 28 -74 67 -103 261
-197 535 -257 1068 -411 1593 -459 197 -18 539 -8 667 20 125 27 250 73 351
131 89 51 226 179 267 251 29 51 57 145 57 193 0 47 -40 116 -80 137 -19 10
-105 55 -190 100 -453 237 -717 467 -995 868 -52 76 -107 146 -123 156 -18 13
-45 19 -79 19 -62 0 -58 -15 -43 170 14 167 11 158 74 178 103 33 123 62 335
490 423 852 844 1863 1353 3247 311 847 447 1325 576 2022 l38 208 84 57 c153
104 313 283 392 437 25 49 33 57 51 53 12 -3 146 -30 297 -60 396 -80 673
-121 1150 -172 121 -13 410 -35 530 -40 74 -3 164 -8 198 -11 63 -6 64 -6 57
-32 -124 -486 -195 -1074 -198 -1652 -3 -449 14 -730 67 -1155 14 -104 27
-239 30 -300 4 -60 9 -146 11 -190 3 -44 21 -341 40 -660 36 -592 71 -1176 80
-1320 3 -44 23 -379 45 -745 22 -366 42 -699 45 -740 2 -41 7 -113 10 -160 3
-47 7 -121 10 -165 3 -44 12 -195 20 -335 8 -140 17 -291 20 -335 3 -44 10
-152 15 -240 9 -131 14 -163 29 -178 14 -15 22 -16 46 -7 l28 11 -7 157 c-4
86 -9 175 -11 197 -2 22 -6 87 -9 145 -3 58 -17 292 -31 520 -27 454 -32 535
-50 820 -3 47 -23 384 -45 750 -22 366 -42 699 -45 740 -3 41 -14 228 -25 415
-11 187 -22 374 -25 415 -3 41 -19 302 -36 580 -16 278 -34 532 -39 565 -14
93 -49 400 -55 495 -4 47 -10 137 -15 200 -9 118 -5 921 4 975 3 17 10 89 16
160 65 788 289 1588 606 2170 78 142 204 347 246 398 l24 29 80 -109 c646
-870 1225 -2039 1799 -3633 138 -383 132 -362 150 -555 9 -93 34 -363 55 -600
22 -236 42 -448 44 -470 3 -22 10 -96 16 -165 10 -114 113 -1227 125 -1345 2
-27 12 -124 20 -215 104 -1111 128 -1348 145 -1428 29 -138 87 -303 150 -427
245 -486 667 -809 1225 -937 l100 -23 6940 -2 c7442 -2 6991 -5 7181 46 278
76 497 203 705 410 131 132 217 249 290 393 98 195 135 329 178 643 17 121 42
303 56 405 48 348 56 405 60 440 3 19 20 148 39 285 20 138 53 381 75 540 22
160 58 421 80 580 22 160 47 344 56 410 9 66 18 131 20 145 2 14 36 257 75
540 41 294 84 569 101 640 184 772 588 1632 1247 2655 271 421 513 771 1089
1578 l362 507 21 -71 c75 -250 143 -687 170 -1084 6 -88 13 -184 15 -212 2
-29 7 -160 10 -290 3 -131 7 -287 10 -348 3 -60 5 -209 6 -330 0 -247 16 -919
25 -1095 4 -87 -2 -198 -25 -455 -26 -284 -97 -1056 -116 -1255 -2 -30 -12
-134 -20 -230 -8 -96 -17 -193 -20 -215 -2 -22 -9 -94 -15 -160 -5 -66 -12
-142 -15 -170 -3 -27 -9 -102 -15 -165 -6 -63 -12 -133 -15 -155 -2 -22 -7
-71 -10 -110 -3 -38 -8 -88 -10 -110 -2 -22 -20 -218 -40 -435 -19 -217 -37
-417 -40 -445 -4 -44 -36 -390 -50 -535 -16 -181 -35 -393 -40 -445 -3 -33
-14 -154 -25 -270 -10 -115 -22 -246 -25 -290 -4 -44 -8 -89 -10 -100 -1 -11
-17 -181 -35 -377 -36 -383 -35 -388 15 -388 12 0 28 7 36 16 9 11 27 166 55
482 23 257 45 494 48 527 7 67 63 685 72 785 3 36 7 81 9 100 2 19 9 89 15
155 6 66 12 143 15 170 12 125 46 496 51 555 3 36 7 81 9 100 2 19 9 87 15
150 72 796 101 1113 105 1155 4 44 75 823 90 995 10 110 15 171 25 265 10 89
57 617 64 705 2 25 0 126 -4 225 -9 196 -17 570 -25 1125 -12 855 -42 1305
-116 1745 -126 757 -397 1298 -840 1679 -237 204 -449 320 -752 412 -31 10
-56 20 -55 23 2 3 46 71 99 151 511 772 814 1566 916 2395 21 176 25 694 5
860 -34 293 -96 568 -189 840 -119 346 -256 611 -588 1135 -330 521 -491 840
-580 1150 -64 224 -79 342 -79 645 0 402 21 538 209 1360 150 656 192 1006
164 1375 -51 674 -314 1393 -743 2030 -271 403 -514 630 -1206 1125 -756 541
-1029 819 -1255 1280 -179 363 -276 743 -390 1520 -147 997 -266 1396 -571
1905 -522 873 -1252 1485 -2097 1759 -376 121 -536 135 -1142 95 -698 -45
-962 0 -1238 209 -609 462 -1887 848 -3067 926 -215 14 -848 6 -1040 -13
-1003 -102 -1814 -409 -2481 -942 -116 -93 -410 -359 -664 -600 l-200 -191
-115 56 c-802 391 -1704 706 -2580 900 -390 86 -666 134 -1135 196 -300 39
-919 85 -1162 85 l-93 0 -1 203 c0 111 -2 213 -3 227 -2 14 -7 205 -10 425 -4
220 -9 450 -11 510 -2 61 -7 261 -10 445 -3 184 -10 351 -15 370 -17 62 -75
126 -136 151 -19 7 -102 11 -241 10 -117 -1 -213 -1 -213 1 0 2 -3 107 -6 233
-2 127 -6 280 -9 340 -2 61 -4 197 -5 303 0 179 -1 193 -20 212 -19 19 -29 20
-249 14 l-229 -7 -6 144 c-3 79 -8 279 -11 444 l-6 300 51 -84 c87 -142 158
-230 309 -381 230 -230 439 -377 771 -543 217 -109 519 -231 535 -216 2 3 1
84 -2 182 l-6 177 -104 54 c-252 132 -467 337 -633 605 -62 100 -157 290 -204
409 -35 86 -36 95 -22 111 22 24 21 28 -24 213 -22 90 -42 173 -45 185 -5 20
8 24 268 88 149 37 273 68 275 70 1 1 -31 139 -72 306 -41 167 -77 321 -81
342 -4 20 -10 39 -14 41 -3 2 -129 -27 -279 -64 l-272 -67 -9 36 c-5 20 -15
56 -21 81 -23 86 -24 86 -285 20z m200 -72 c203 -815 270 -1108 256 -1112 -16
-5 -146 -37 -1334 -327 -319 -78 -582 -137 -587 -133 -4 5 -49 180 -100 389
-51 209 -111 458 -135 554 -43 173 -43 173 -21 179 28 8 1899 469 1908 471 4
0 10 -9 13 -21z m-9895 -1794 c407 -77 869 -446 1176 -941 362 -582 472 -1240
275 -1647 -34 -70 -55 -97 -155 -194 -129 -126 -170 -150 -308 -178 -251 -51
-550 40 -871 266 -126 89 -371 335 -483 484 -474 638 -635 1409 -391 1881 82
158 245 288 412 329 80 19 244 20 345 0z m9984 -870 c3 -110 9 -337 12 -506
l7 -306 -44 -6 c-54 -6 -1808 -40 -1813 -35 -9 9 -16 186 -22 585 l-6 422 178
6 c99 3 436 11 749 17 314 6 574 11 578 12 4 1 86 4 181 6 l173 3 7 -198z
m-12124 -453 c438 -96 924 -517 1224 -1059 186 -338 282 -661 293 -987 6 -205
-10 -331 -60 -464 -47 -125 -90 -194 -175 -278 -143 -143 -340 -204 -567 -174
-700 92 -1451 973 -1591 1866 -25 157 -23 389 5 517 48 226 150 394 300 491
101 67 186 96 311 109 57 6 179 -4 260 -21z m12668 -465 c65 -34 72 -57 78
-248 5 -196 21 -1007 29 -1443 3 -159 8 -347 11 -417 l5 -128 -273 -1 c-150 0
-298 -2 -328 -4 -30 -2 -116 -6 -190 -10 -74 -3 -153 -8 -175 -10 -22 -2 -74
-6 -115 -10 -601 -47 -1223 -145 -1807 -283 -144 -35 -162 -37 -166 -22 -2 9
-5 127 -6 263 -1 136 -4 257 -6 269 -2 13 -6 208 -10 433 -3 226 -8 453 -10
505 -7 165 -19 872 -16 942 1 40 39 94 75 108 24 9 356 18 1766 46 179 4 433
9 565 13 552 14 540 14 573 -3z m577 -2340 c33 -3 134 -10 225 -16 1465 -94
2918 -477 4277 -1125 l142 -68 -188 -196 c-104 -108 -238 -250 -297 -317
l-109 -121 -55 25 c-931 419 -1804 687 -2762 848 -205 34 -603 87 -748 98 -41
4 -97 9 -125 11 -235 23 -636 40 -940 40 -186 0 -674 -14 -684 -19 -3 -2 -60
-7 -126 -10 -66 -4 -133 -9 -150 -11 -16 -2 -84 -9 -150 -15 -190 -18 -487
-57 -718 -96 -2000 -335 -3855 -1218 -5382 -2562 -319 -281 -695 -653 -943
-934 -48 -54 -93 -98 -102 -98 -8 0 -40 7 -70 15 -89 24 -325 55 -465 62 -136
6 -328 -8 -428 -31 -31 -7 -57 -11 -57 -8 0 3 51 68 114 146 1332 1651 3079
2913 5060 3656 863 323 1771 543 2711 655 306 37 468 50 828 70 221 12 1005
12 1142 1z m15 -931 c36 -3 153 -12 260 -21 198 -14 502 -46 620 -64 896 -135
1588 -311 2325 -590 252 -95 723 -293 754 -316 2 -2 -54 -72 -124 -156 -820
-990 -1350 -1950 -1651 -2991 -160 -555 -223 -950 -229 -1442 -3 -265 4 -416
30 -635 72 -595 288 -1321 545 -1830 111 -219 211 -382 520 -850 147 -223 308
-472 358 -555 112 -188 197 -354 186 -364 -5 -4 -344 -106 -754 -226 -410
-119 -800 -234 -867 -255 l-121 -37 -12 46 c-23 92 -160 189 -326 231 -298 76
-652 34 -894 -107 -73 -43 -209 -168 -242 -222 -70 -119 -261 -241 -515 -331
l-91 -32 -59 22 c-191 72 -460 59 -788 -39 l-100 -30 -370 95 c-203 53 -404
106 -445 119 -157 50 -195 57 -350 62 -134 4 -170 2 -260 -17 -349 -72 -639
-291 -799 -604 -22 -44 -42 -84 -44 -90 -9 -28 -374 117 -582 231 -416 229
-726 488 -1113 929 -161 185 -398 417 -511 502 -127 96 -210 134 -301 140 -57
3 -90 12 -135 35 -33 16 -63 34 -67 40 -8 13 0 68 22 137 9 30 99 242 200 470
308 702 276 635 307 632 16 -2 73 -10 128 -17 124 -17 279 -14 320 6 44 21 77
98 120 278 55 234 59 240 188 324 107 69 137 101 137 149 0 13 -25 73 -55 133
-74 145 -92 231 -71 324 54 237 39 572 -36 801 -94 290 -299 477 -612 559
-150 39 -299 55 -631 66 -280 10 -354 24 -490 92 -259 131 -497 391 -678 742
-78 152 -132 227 -243 337 -253 252 -657 482 -1086 620 -49 15 -88 32 -88 36
0 30 657 697 895 909 1697 1513 3786 2453 6000 2699 329 36 472 48 710 56 93
4 172 9 175 11 7 6 856 -5 940 -12z m7581 -59 c7 -16 8 -30 2 -41 -6 -9 -63
-39 -129 -66 -422 -174 -823 -431 -1099 -704 -263 -261 -421 -532 -490 -840
-9 -40 -18 -144 -22 -245 -3 -96 -10 -181 -15 -187 -15 -18 -53 -16 -69 4 -23
27 -16 303 10 429 71 343 247 644 542 929 275 266 664 515 1079 691 142 61
175 66 191 30z m-17063 -681 c154 -65 170 -282 27 -370 -93 -57 -220 -33 -279
54 -99 145 -5 329 167 331 26 0 64 -7 85 -15z m22382 -2510 c75 -11 98 -18
112 -35 14 -17 15 -26 7 -41 -16 -30 -33 -33 -131 -19 -111 15 -331 15 -453 0
-536 -66 -1152 -344 -2038 -919 -100 -65 -441 -291 -757 -502 -316 -212 -651
-431 -744 -488 -688 -420 -1148 -616 -1598 -682 -169 -24 -442 -8 -588 35 -50
14 -75 47 -60 77 15 27 33 28 108 9 300 -79 683 -33 1106 131 171 67 490 223
691 339 267 154 501 304 1170 750 881 588 1119 735 1520 941 470 241 867 374
1235 413 82 8 332 3 420 -9z m1284 -786 c22 -22 65 -171 86 -294 13 -76 20
-185 24 -355 3 -135 8 -335 11 -445 3 -110 7 -317 10 -460 3 -143 7 -348 10
-455 3 -107 7 -334 11 -505 11 -591 23 -1040 29 -1070 15 -71 38 -71 142 -1
124 83 176 100 308 100 106 1 113 0 179 -33 250 -123 390 -472 382 -951 -9
-506 -161 -934 -489 -1373 -299 -401 -624 -644 -877 -656 -30 -1 -58 -6 -62
-9 -4 -4 -30 -72 -58 -151 -269 -751 -665 -1490 -1104 -2061 -205 -267 -505
-581 -726 -761 -707 -576 -1447 -769 -2205 -574 -802 206 -1586 894 -2223
1950 -269 448 -502 939 -687 1450 -26 72 -51 135 -56 141 -5 6 -43 14 -84 17
-436 37 -1101 811 -1270 1476 -58 230 -69 320 -69 576 -1 214 2 252 22 348 65
302 186 499 357 579 80 37 189 48 277 28 62 -15 165 -64 239 -114 58 -41 70
-43 91 -18 17 19 27 198 28 503 l0 155 133 13 c414 39 847 181 1422 466 390
193 593 309 1510 860 1167 701 1680 974 2302 1224 569 228 1170 380 1613 408
52 3 97 8 100 10 3 3 141 3 308 1 245 -4 305 -7 316 -19z m-19411 -2347 c122
-60 223 -191 247 -321 5 -29 10 -96 10 -147 0 -180 32 -317 107 -452 19 -34
33 -67 31 -73 -2 -6 -48 -40 -103 -77 -140 -94 -151 -112 -209 -354 -26 -107
-54 -205 -63 -218 -16 -22 -19 -23 -147 -17 -72 3 -177 13 -234 23 -92 15
-105 16 -118 2 -16 -16 -470 -1038 -512 -1153 -22 -61 -25 -87 -26 -195 0
-113 2 -132 27 -196 31 -83 33 -97 11 -115 -15 -12 -155 -15 -224 -4 -14 2
-52 6 -85 10 -82 8 -384 60 -530 91 -225 47 -217 44 -336 159 -97 95 -228 193
-289 217 -24 9 -23 11 30 32 436 180 776 501 986 931 109 225 211 574 202 696
-4 53 -8 62 -58 115 -154 168 -233 328 -214 433 10 58 64 150 103 177 52 35
123 33 182 -4 89 -57 157 -66 253 -32 110 38 178 81 261 168 209 220 228 237
311 280 103 53 139 62 241 58 68 -2 92 -8 146 -34z m24790 -1054 c45 -35 243
-652 352 -1102 268 -1098 255 -1971 -37 -2537 -46 -90 -68 -114 -97 -104 -46
14 -43 36 18 161 143 291 203 592 205 1029 1 316 -13 495 -65 830 -75 476
-235 1090 -415 1587 -38 105 -38 107 -20 127 22 24 35 26 59 9z m-28663 -418
c36 -6 94 -20 130 -31 124 -40 175 -77 340 -246 221 -227 368 -329 577 -399
288 -97 755 -97 1076 0 l47 14 -21 -30 c-38 -52 -191 -209 -264 -268 -93 -76
-219 -157 -330 -213 -147 -73 -191 -84 -375 -96 -196 -13 -268 -29 -375 -81
-185 -90 -403 -319 -515 -540 -13 -25 -51 -88 -86 -140 -70 -107 -160 -280
-199 -384 -89 -239 -112 -482 -92 -965 4 -107 10 -197 11 -200 2 -3 7 -46 10
-96 20 -263 76 -693 187 -1435 115 -770 165 -1118 204 -1430 44 -354 87 -749
81 -759 -3 -4 -30 -20 -60 -35 -79 -40 -80 -43 -67 -128 48 -315 102 -636 111
-650 13 -24 16 -20 -36 -59 -56 -41 -153 -168 -198 -258 -146 -290 -101 -621
127 -923 130 -173 299 -269 525 -299 85 -12 92 -14 92 -35 0 -74 -84 -634
-121 -804 l-12 -55 -61 66 c-33 36 -113 122 -176 190 -1240 1339 -2148 3042
-2566 4813 -138 583 -209 1040 -264 1683 -35 413 -35 1226 0 1658 34 429 97
883 176 1288 44 223 45 227 83 227 54 0 314 48 451 84 343 88 814 268 1180
451 178 89 268 107 410 85z m12537 -137 c11 -10 55 -76 99 -148 73 -122 254
-396 616 -930 165 -245 297 -453 397 -627 91 -158 211 -400 211 -424 0 -28
-23 -46 -52 -42 -19 2 -40 36 -116 183 -134 260 -264 473 -541 885 -536 798
-691 1038 -691 1070 0 18 30 50 45 50 7 0 22 -8 32 -17z m-15370 -399 c152
-63 323 -94 526 -95 70 -1 127 -4 127 -8 0 -3 -7 -33 -14 -66 -77 -324 -181
-1066 -202 -1435 -3 -58 -7 -110 -9 -117 -14 -43 -25 -755 -16 -1063 10 -399
61 -938 127 -1353 349 -2206 1334 -4198 2882 -5825 l155 -163 -28 -122 c-38
-165 -94 -373 -162 -604 l-56 -192 -86 78 c-108 99 -421 417 -566 576 -1374
1499 -2335 3311 -2793 5265 -269 1147 -362 2306 -282 3510 31 472 99 981 196
1475 47 241 38 220 82 195 20 -12 74 -37 119 -56z m4053 -845 c230 -37 460
-230 736 -616 211 -295 405 -691 518 -1053 19 -63 60 -212 91 -330 31 -117 63
-228 72 -245 36 -72 119 -135 202 -154 24 -5 192 -5 418 0 426 10 452 15 528
81 65 58 100 135 99 223 -1 60 -11 99 -76 285 -248 708 -481 1212 -665 1438
-21 26 -29 42 -20 42 25 0 190 -86 282 -147 197 -131 303 -243 438 -458 377
-605 764 -1483 1052 -2390 72 -226 209 -698 221 -759 l7 -38 -74 6 c-41 4
-225 18 -409 31 -184 14 -355 27 -380 30 -25 3 -137 14 -250 25 -593 59 -981
130 -1131 205 -80 41 -171 172 -233 339 -34 91 -68 209 -161 556 -203 761
-361 1232 -533 1590 -178 370 -426 652 -691 784 -171 86 -282 111 -481 111
-152 -1 -191 -7 -349 -51 l-25 -7 24 39 c44 73 147 199 213 261 184 172 367
236 577 202z m1915 -525 c184 -280 385 -735 595 -1352 54 -158 62 -191 58
-237 -6 -66 -41 -122 -97 -153 -47 -27 -79 -29 -509 -37 -317 -6 -324 -6 -368
15 -74 36 -91 69 -146 278 -99 377 -163 570 -270 812 -100 228 -251 487 -399
688 -38 50 -65 92 -60 92 4 0 64 -11 132 -25 292 -60 616 -105 754 -105 123 0
178 44 179 142 l1 50 38 -43 c21 -24 63 -80 92 -125z m-2091 -46 c85 -23 281
-118 356 -173 63 -46 214 -205 284 -297 48 -64 57 -82 52 -104 -5 -20 5 -45
48 -118 219 -366 365 -776 620 -1734 93 -349 130 -470 176 -583 67 -161 178
-297 277 -340 230 -99 845 -191 1698 -254 39 -3 90 -7 115 -10 25 -2 90 -7
145 -10 55 -3 120 -7 145 -10 25 -2 95 -7 155 -10 232 -12 273 -22 310 -78 45
-70 39 -252 -16 -467 -66 -254 -129 -328 -337 -389 -102 -31 -581 -144 -759
-180 -144 -29 -431 -73 -558 -86 -33 -3 -76 -8 -95 -10 -125 -12 -407 -16
-550 -6 -561 38 -991 198 -1357 505 -310 260 -581 661 -838 1241 -271 612
-435 1196 -520 1857 -7 57 -32 77 -73 59 -24 -12 -25 -13 -18 -92 8 -99 58
-394 92 -548 93 -422 219 -815 383 -1204 277 -652 573 -1106 909 -1388 108
-91 296 -218 391 -264 l62 -30 -6 -105 c-3 -58 -8 -126 -11 -152 l-6 -48 -166
0 c-451 0 -963 -91 -1341 -239 -58 -22 -106 -39 -107 -38 -1 1 -12 97 -24 212
-19 183 -53 471 -90 755 -14 109 -113 787 -185 1270 -146 981 -193 1414 -200
1850 -4 254 4 367 36 529 32 166 115 357 232 539 43 66 54 76 111 102 189 86
450 105 660 48z m11940 -185 c34 -115 42 -153 32 -153 -4 0 -1266 -370 -2301
-674 -273 -81 -454 -129 -460 -124 -5 5 -10 35 -10 66 1 140 123 240 437 357
190 71 2252 674 2259 661 4 -6 23 -66 43 -133z m-2484 -137 c252 -41 432 -181
308 -239 -18 -8 -89 -36 -158 -62 -277 -105 -419 -202 -475 -326 -62 -140 -16
-284 105 -320 34 -10 56 -7 202 30 90 22 190 44 224 47 58 6 62 5 83 -21 12
-16 20 -33 18 -39 -4 -11 -65 -56 -76 -56 -3 1 -17 16 -31 34 l-26 34 -344
-130 -345 -130 -45 17 c-93 36 -177 55 -243 55 -68 0 -161 22 -940 226 -114
30 -211 54 -215 55 -4 0 36 13 88 28 189 55 458 153 576 211 165 80 270 161
340 261 118 167 282 269 514 318 116 24 316 27 440 7z m2740 -399 c58 -201 59
-219 8 -225 -14 -2 -30 4 -37 12 -11 14 -151 477 -151 502 0 6 14 14 31 18 21
4 33 13 37 28 6 26 19 -13 112 -335z m-350 170 c0 -73 -15 -180 -29 -205 -5
-8 -23 37 -45 113 -21 70 -34 131 -29 135 8 9 68 27 91 29 8 1 12 -20 12 -72z
m-8589 -204 c401 -355 835 -615 1232 -738 48 -15 87 -30 87 -34 0 -3 -9 -49
-20 -101 -22 -106 -27 -293 -10 -397 28 -173 109 -367 210 -501 52 -70 135
-155 247 -252 l40 -35 7 -100 c3 -55 9 -154 12 -219 l6 -119 -208 6 c-255 8
-759 59 -779 79 -3 3 -30 88 -61 189 -265 882 -619 1749 -968 2374 l-67 120
84 -90 c46 -49 131 -131 188 -182z m8442 22 l57 -195 -50 -101 c-268 -536
-999 -1352 -1839 -2051 -80 -67 -182 -153 -227 -190 -237 -198 -472 -486 -654
-803 -277 -480 -485 -1164 -554 -1825 -4 -30 -11 -100 -17 -155 -16 -159 -23
-710 -10 -885 39 -540 132 -960 312 -1413 204 -514 533 -1037 927 -1475 l84
-93 -159 -75 c-690 -331 -903 -447 -1106 -601 -375 -284 -708 -685 -952 -1146
l-53 -100 -199 2 c-182 1 -479 14 -613 26 -30 3 -89 7 -130 10 -41 3 -91 8
-110 10 -49 5 -125 14 -190 20 -276 28 -859 127 -1149 195 l-91 22 5 36 c22
153 29 1326 11 1657 -3 44 -8 154 -11 245 -3 91 -8 192 -10 225 -3 33 -7 112
-10 175 -16 320 -72 1065 -100 1325 -3 22 -12 117 -20 210 -13 138 -58 559
-80 740 -58 488 -139 1091 -210 1565 -29 190 -94 572 -130 760 l-35 185 33 90
33 90 144 -1 c161 -1 236 -15 353 -67 l68 -30 -5 -36 c-3 -20 -10 -81 -16
-136 -13 -118 -85 -625 -105 -740 -8 -44 -33 -182 -55 -307 l-42 -228 26 -55
c33 -73 112 -155 183 -191 53 -26 67 -29 158 -28 84 0 111 5 169 27 77 30 196
106 225 143 24 31 127 274 192 453 61 169 126 381 178 580 22 84 42 155 44
158 3 2 24 -1 48 -6 105 -25 229 -5 283 45 53 50 59 81 64 296 3 167 1 204
-13 250 -31 95 -90 157 -219 233 -16 9 -16 18 -2 130 20 157 55 551 56 631 0
30 4 33 93 69 50 21 184 82 297 136 l205 99 1045 160 c575 88 1051 163 1059
165 10 4 257 -149 649 -403 28 -18 34 -12 92 106 75 151 129 348 162 587 16
117 16 457 -1 560 -11 73 -40 196 -56 236 -4 12 8 25 43 48 62 40 87 84 79
140 -6 49 -48 108 -88 125 -27 11 -16 16 174 71 111 32 206 59 211 59 6 1 94
-276 146 -467 14 -49 51 -69 80 -42 11 10 20 23 20 30 0 6 -31 118 -70 249
-38 130 -70 243 -70 251 0 8 23 20 58 30 31 9 84 25 117 35 33 10 61 17 62 16
1 -1 35 -116 76 -255 41 -139 81 -257 88 -262 24 -15 48 -10 63 14 14 20 9 43
-60 276 -40 140 -73 255 -71 256 8 7 282 83 286 80 2 -3 37 -116 77 -252 81
-277 92 -297 145 -254 l23 18 -58 199 c-32 110 -66 227 -76 260 l-18 61 141
42 c78 23 144 38 148 34 4 -5 37 -111 74 -237 81 -278 79 -272 104 -279 24 -6
61 18 61 39 0 9 -32 124 -71 255 -38 132 -69 245 -67 251 4 10 234 85 268 87
12 1 30 -47 73 -194z m1310 -109 c7 -8 21 -49 31 -93 140 -653 -54 -1303 -525
-1758 -115 -111 -145 -134 -699 -530 -793 -568 -1064 -778 -1389 -1084 -322
-301 -606 -663 -760 -968 -27 -55 -35 -63 -59 -63 -32 0 -52 16 -52 42 0 41
178 336 307 508 116 155 250 304 439 490 333 327 621 555 1399 1110 660 470
731 527 864 686 235 281 372 598 416 956 19 160 0 454 -40 609 -19 71 -19 74
1 93 19 20 48 20 67 2z m-5350 -142 c15 -8 -4 -17 -100 -44 -65 -18 -139 -43
-165 -56 l-46 -23 -142 36 c-99 25 -136 39 -123 44 19 7 201 44 258 53 56 8
300 0 318 -10z m-1753 -49 c150 -48 255 -112 360 -217 260 -259 322 -658 155
-988 -107 -213 -291 -363 -532 -436 -76 -23 -107 -27 -223 -28 -147 0 -215 12
-342 65 -143 59 -297 189 -386 328 -169 260 -174 626 -14 889 131 217 316 350
567 408 41 9 104 12 195 10 114 -3 148 -8 220 -31z m15173 -1857 c4 -46 9
-108 12 -138 3 -30 24 -253 46 -495 22 -242 42 -460 45 -485 2 -25 16 -171 29
-325 14 -154 27 -302 30 -330 3 -27 25 -273 50 -545 25 -272 47 -515 50 -540
3 -25 18 -196 35 -380 17 -184 32 -357 35 -385 3 -27 21 -225 41 -440 22 -244
40 -394 47 -401 7 -7 176 -59 377 -117 1935 -559 3405 -989 4845 -1417 941
-279 1811 -533 1935 -564 449 -110 661 -203 909 -400 163 -128 325 -303 439
-474 54 -80 152 -244 152 -253 0 -2 -20 -5 -43 -6 -24 -1 -119 -9 -211 -18
-162 -15 -763 -70 -876 -80 -30 -2 -107 -9 -170 -15 -107 -9 -392 -33 -540
-45 -36 -3 -87 -7 -115 -10 -94 -8 -180 -15 -570 -45 -214 -17 -417 -32 -450
-35 -33 -3 -190 -14 -350 -25 -159 -12 -319 -23 -355 -25 -286 -22 -1185 -77
-1690 -105 -201 -11 -403 -22 -450 -25 -139 -9 -888 -43 -1285 -60 -203 -8
-417 -17 -475 -20 -58 -2 -197 -7 -310 -10 -113 -3 -236 -8 -275 -10 -38 -3
-185 -7 -325 -10 -140 -3 -284 -8 -320 -10 -36 -2 -231 -7 -435 -10 -203 -3
-392 -8 -420 -10 -300 -27 -3839 -26 -4715 0 -85 3 -333 10 -550 15 -217 5
-453 12 -525 15 -71 3 -263 10 -425 15 -311 11 -494 17 -650 25 -52 2 -153 7
-225 10 -71 3 -173 8 -225 10 -52 3 -144 7 -205 10 -60 3 -148 7 -195 10 -47
3 -211 12 -365 20 -154 8 -428 24 -610 35 -310 19 -383 23 -545 35 -36 2 -103
7 -150 10 -440 28 -1479 111 -2070 166 -239 22 -468 42 -509 46 l-74 6 29 24
c61 51 216 156 323 218 104 63 523 267 1916 935 66 32 244 117 395 190 151 73
334 161 405 195 365 175 656 315 795 383 85 41 196 94 245 117 50 23 171 82
270 130 99 47 344 157 545 242 201 85 484 206 630 268 146 62 432 183 635 270
807 342 910 387 924 400 13 12 26 93 115 705 20 135 50 337 66 450 82 555 183
1239 200 1355 51 354 180 1228 221 1502 l22 143 41 -48 c538 -617 1144 -1014
1759 -1152 337 -76 698 -71 1035 14 350 89 710 269 1041 520 314 239 666 601
914 943 45 61 85 112 88 112 3 1 9 -36 12 -81z m-14635 7 c-8 -8 -229 -105
-239 -105 -5 0 -9 15 -9 34 l0 34 68 11 c37 6 90 15 117 20 67 12 69 12 63 6z
m-2213 -405 c141 -18 357 -39 470 -45 61 -4 133 -8 160 -10 28 -2 85 -4 128
-5 l77 0 0 -124 0 -124 -187 1 c-177 2 -358 -6 -430 -19 -23 -4 -40 0 -60 13
-42 29 -61 35 -137 42 l-70 6 -32 120 c-18 66 -35 130 -39 143 -5 19 -2 22 17
17 13 -2 59 -9 103 -15z m955 -425 c124 -21 234 -50 341 -91 47 -18 173 -56
279 -84 287 -76 395 -134 444 -240 19 -41 21 -60 18 -232 -1 -103 -6 -198 -12
-212 -24 -63 -159 -77 -290 -30 -93 33 -120 46 -191 94 -31 21 -65 40 -75 41
-60 9 -111 -42 -98 -98 4 -16 29 -66 56 -113 67 -117 64 -170 -9 -170 -46 0
-121 71 -175 165 -115 198 -255 338 -425 424 -142 71 -322 111 -486 108 -48
-1 -87 0 -87 3 0 3 6 37 14 77 16 86 20 262 7 318 -12 48 -8 51 72 54 34 1 64
5 67 8 11 11 457 -6 550 -22z m-853 -956 c39 -199 120 -702 173 -1064 27 -192
52 -366 55 -385 11 -68 94 -748 119 -965 34 -298 56 -500 81 -770 9 -88 17
-180 20 -205 2 -25 7 -79 10 -120 3 -41 8 -95 10 -120 3 -25 7 -76 10 -115 3
-38 10 -131 15 -205 6 -74 13 -171 15 -215 3 -44 7 -107 10 -140 14 -185 33
-589 46 -975 11 -323 7 -1341 -6 -1485 -2 -27 -9 -129 -15 -225 -6 -96 -13
-195 -15 -220 -41 -421 -55 -495 -123 -649 -105 -239 -320 -457 -555 -566
-100 -46 -175 -69 -382 -115 -1074 -242 -2036 -313 -2840 -210 -357 46 -750
148 -981 255 -264 121 -454 332 -527 585 -69 239 -63 574 19 957 88 414 212
788 619 1868 224 596 291 778 392 1070 291 842 472 1561 552 2195 51 405 109
1017 144 1535 7 106 16 179 22 177 6 -1 69 -22 140 -46 535 -181 1171 -188
1990 -20 241 50 718 168 796 197 68 26 142 68 154 87 17 27 32 -5 52 -111z
m24497 -391 c25 -39 90 -326 120 -533 54 -369 49 -823 -15 -1192 -90 -530
-316 -1090 -643 -1596 -41 -64 -54 -72 -91 -63 -42 11 -31 48 53 184 328 529
522 1041 602 1591 27 187 35 297 35 506 0 354 -28 592 -111 938 -35 142 -35
149 -19 168 24 25 51 24 69 -3z m-27764 -100 c0 -47 -26 -373 -36 -454 l-6
-51 -231 -6 c-301 -8 -490 -35 -721 -102 -184 -53 -431 -158 -585 -249 -35
-20 -65 -36 -66 -34 -1 2 -21 120 -44 263 -23 143 -45 272 -48 287 -5 25 0 29
63 61 390 196 976 318 1557 325 l117 2 0 -42z m-50 -621 c0 -44 -56 -541 -86
-767 -42 -310 -141 -812 -166 -836 -18 -18 -190 -84 -339 -132 -461 -147 -805
-121 -1024 80 -113 104 -214 277 -257 442 -30 118 -23 280 19 392 58 154 132
250 277 363 57 44 125 105 151 135 35 39 68 65 119 90 231 112 500 192 766
226 203 27 540 31 540 7z m8339 -436 c12 -8 15 -60 16 -298 1 -158 5 -308 9
-333 4 -25 16 -108 27 -185 69 -483 246 -1015 543 -1638 31 -65 56 -126 56
-136 0 -25 -24 -43 -52 -39 -27 4 -87 116 -208 388 -344 775 -511 1517 -471
2094 7 107 12 132 27 143 21 15 34 16 53 4z m20796 -4503 c89 -104 123 -181
107 -241 -5 -17 -156 -237 -335 -488 -1040 -1456 -1452 -2099 -1824 -2844
-255 -508 -414 -921 -534 -1380 -41 -159 -58 -255 -104 -590 -30 -220 -64
-463 -75 -540 -23 -161 -164 -1188 -185 -1345 -21 -154 -180 -1304 -220 -1596
-53 -378 -108 -545 -248 -754 -228 -342 -570 -569 -978 -647 -90 -17 -372 -18
-6964 -18 -3779 0 -6901 3 -6940 7 -544 52 -1046 395 -1299 887 -115 226 -164
407 -191 706 -9 99 -18 200 -20 225 -3 25 -14 142 -25 260 -11 118 -31 337
-45 485 -14 149 -29 320 -35 380 -6 61 -12 133 -15 160 -8 85 -35 377 -40 435
-3 30 -14 150 -25 265 -11 116 -31 334 -45 485 -14 151 -27 295 -30 320 -2 25
-11 122 -20 215 -14 153 -22 234 -40 430 -3 33 -14 150 -24 261 l-19 200 -72
205 c-449 1273 -918 2321 -1405 3134 -101 170 -341 531 -445 670 -45 61 -85
115 -87 122 -6 16 81 141 159 227 35 39 115 114 178 168 l115 99 70 -6 c39 -3
90 -8 115 -11 109 -11 572 -53 645 -59 44 -4 96 -8 115 -10 19 -3 94 -9 165
-15 72 -6 153 -13 180 -15 28 -3 138 -12 245 -20 107 -8 218 -17 245 -19 28
-3 86 -8 130 -11 44 -3 105 -8 135 -10 70 -6 591 -43 690 -50 41 -2 145 -9
230 -15 85 -5 187 -12 225 -15 39 -2 225 -14 415 -25 190 -10 386 -22 435 -25
150 -8 661 -34 815 -40 80 -3 181 -8 225 -10 89 -5 497 -22 730 -30 83 -3 209
-7 280 -10 730 -27 1852 -50 3040 -60 602 -6 2422 8 2765 20 74 2 281 7 460
10 179 3 370 8 425 10 55 3 201 7 325 10 288 7 1065 33 1195 40 55 2 170 7
255 10 85 3 191 7 235 10 44 3 136 7 205 10 227 9 563 25 655 30 50 3 221 12
380 20 160 8 324 17 365 20 41 2 118 7 170 10 219 12 448 26 495 30 28 2 109
7 180 10 72 3 146 8 165 10 19 2 82 7 140 10 104 6 471 30 605 40 39 3 195 14
348 25 153 11 306 22 340 25 34 3 152 12 262 20 110 8 229 18 265 20 269 22
805 66 850 70 30 3 161 14 290 25 129 12 253 23 275 25 22 2 76 7 120 10 44 4
233 22 420 40 187 18 348 33 357 34 9 0 33 -18 53 -41z m-25045 -967 c125 -29
494 -98 647 -121 479 -73 934 -114 1400 -126 136 -4 249 -8 251 -9 1 -1 -28
-71 -64 -155 -59 -138 -195 -524 -224 -639 l-11 -43 -167 7 c-92 3 -185 8
-207 10 -22 2 -83 7 -135 10 -52 3 -111 8 -130 10 -19 2 -69 7 -110 10 -85 7
-72 6 -355 40 -209 25 -480 67 -690 106 -121 22 -448 90 -453 94 -1 1 5 22 14
46 38 107 64 292 89 624 11 156 14 166 38 160 12 -3 60 -14 107 -24z m-9250
-3946 c27 -9 26 -23 -21 -262 -33 -166 -40 -223 -37 -283 5 -94 38 -170 104
-240 76 -82 131 -102 432 -159 145 -27 270 -55 278 -62 21 -17 18 -34 -26
-191 -94 -332 -116 -486 -114 -818 1 -202 10 -302 45 -478 11 -57 19 -106 16
-108 -3 -3 -31 17 -64 44 -184 153 -341 392 -417 631 -15 47 -38 148 -51 225
-23 136 -25 142 -59 174 -30 26 -44 32 -82 32 -60 0 -71 -7 -138 -90 -61 -75
-82 -84 -114 -49 -36 38 -185 312 -249 455 -115 261 -181 487 -238 815 l-33
190 27 11 c89 36 283 101 353 119 144 37 340 59 388 44z m329 -163 c7 -13 104
-146 217 -297 112 -151 205 -279 206 -284 2 -5 -15 -39 -37 -75 -27 -44 -45
-64 -55 -61 -8 2 -105 20 -215 40 -224 41 -266 56 -322 112 -94 94 -106 173
-60 397 l32 159 105 42 105 42 6 -26 c3 -14 11 -36 18 -49z m-1160 -207 c70
-441 210 -832 429 -1200 78 -132 104 -162 154 -177 61 -18 112 8 182 92 31 39
64 70 72 70 18 0 29 -29 39 -100 52 -403 265 -768 585 -1006 89 -65 89 -65 95
-118 9 -70 -2 -88 -72 -123 -54 -26 -66 -28 -178 -28 -111 1 -128 3 -220 36
-234 81 -434 243 -656 529 -268 345 -498 788 -660 1270 -76 228 -157 533 -165
625 -8 95 5 109 198 204 89 44 165 77 169 73 3 -4 16 -70 28 -147z m6494
-3071 l339 -38 -8 -46 c-4 -25 -10 -119 -13 -210 l-6 -165 -164 -137 c-179
-150 -220 -173 -316 -173 -102 0 -155 34 -271 172 l-97 116 22 51 c61 139 108
296 137 454 3 16 10 22 22 18 9 -2 169 -21 355 -42z m-602 -551 c170 -206 211
-247 282 -279 113 -52 256 -43 357 22 19 12 118 92 220 178 145 122 190 156
210 154 19 -2 44 -30 111 -126 273 -390 534 -630 914 -841 60 -34 107 -61 105
-61 -3 0 -41 -7 -85 -16 -92 -18 -320 -20 -423 -4 -163 26 -325 86 -489 181
-56 33 -117 62 -135 65 -45 7 -97 -23 -121 -70 -19 -36 -19 -39 -1 -127 17
-84 17 -90 1 -106 -16 -16 -24 -16 -142 1 -317 45 -632 144 -921 289 -84 42
-345 188 -362 202 -8 7 88 256 139 364 80 168 179 311 214 311 7 0 63 -62 126
-137z m-361 -718 c63 -40 263 -141 360 -183 233 -100 528 -184 783 -222 162
-25 198 -20 240 30 36 43 41 80 22 166 -26 119 -14 127 92 62 229 -140 453
-207 718 -213 166 -4 272 7 406 44 l67 18 45 -24 c25 -12 49 -28 52 -34 16
-25 5 -95 -25 -155 -87 -177 -318 -316 -616 -370 -135 -25 -503 -25 -689 0
-519 68 -1001 216 -1480 452 -163 81 -195 107 -195 158 0 35 27 174 55 289
l17 67 57 -32 c31 -17 72 -41 91 -53z"/>
<path d="M22480 35898 c-248 -224 -670 -598 -2180 -1933 -891 -788 -1161
-1028 -1522 -1354 -229 -205 -247 -228 -216 -259 31 -31 58 -12 355 256 340
305 926 825 2048 1817 1404 1240 1815 1608 1829 1632 5 9 4 25 -3 39 -24 53
-51 37 -311 -198z"/>
<path d="M19985 35183 c-159 -147 -578 -530 -930 -852 -352 -322 -648 -594
-657 -603 -10 -10 -18 -27 -18 -38 0 -25 44 -55 64 -43 8 4 135 118 282 253
147 135 572 523 943 863 392 358 677 626 679 638 5 28 -16 49 -47 48 -20 0
-95 -63 -316 -266z"/>
<path d="M17809 33215 c-235 -215 -335 -313 -337 -330 -4 -28 38 -62 61 -48 8
4 164 144 346 311 335 307 352 327 319 360 -7 7 -22 12 -33 12 -14 0 -138
-107 -356 -305z"/>
<path d="M22635 32103 c-1875 -1723 -2125 -1955 -2125 -1977 0 -28 18 -46 45
-46 14 0 346 298 991 891 1526 1404 1444 1327 1444 1352 0 29 -18 47 -44 47
-13 0 -131 -101 -311 -267z"/>
<path d="M17850 31769 c-435 -399 -491 -454 -488 -477 2 -18 11 -30 30 -36 32
-11 -28 -63 561 477 334 307 457 425 457 441 0 28 -18 46 -46 46 -16 0 -174
-139 -514 -451z"/>
<path d="M19512 27228 c-241 -33 -480 -214 -578 -434 -91 -205 -88 -457 7
-648 102 -206 284 -351 509 -407 119 -30 290 -24 405 15 189 64 320 171 428
348 91 150 121 365 78 551 -89 379 -459 630 -849 575z"/>
<path d="M29750 18208 c-3 -3 -160 -9 -350 -12 -190 -4 -354 -9 -365 -11 -11
-2 -99 -7 -195 -10 -157 -5 -383 -16 -650 -30 -98 -5 -413 -21 -600 -30 -495
-24 -534 -27 -547 -37 -21 -17 -15 -56 10 -71 22 -14 101 -12 856 27 64 4 204
11 311 16 107 6 238 12 290 15 97 5 217 10 440 20 1473 64 2299 6 2904 -206
77 -27 144 -49 148 -49 4 0 15 11 24 25 30 47 5 65 -168 123 -365 122 -755
187 -1305 216 -158 9 -797 19 -803 14z"/>
<path d="M34339 18086 c-2 -2 -65 -6 -139 -10 -362 -18 -719 -84 -961 -177
-65 -25 -80 -35 -85 -56 -5 -20 -2 -31 14 -43 20 -17 27 -15 164 31 227 76
510 126 853 149 141 10 916 14 1035 5 30 -2 120 -6 200 -10 80 -3 303 -15 495
-25 193 -11 393 -22 445 -25 52 -3 129 -8 170 -10 137 -9 433 -24 590 -30 85
-4 187 -8 225 -11 39 -2 289 -7 556 -11 l486 -6 21 21 c27 27 27 37 3 61 -19
19 -38 20 -393 20 -390 1 -813 14 -1208 36 -47 3 -204 12 -350 20 -146 8 -301
17 -345 20 -610 38 -1068 55 -1451 55 -177 -1 -323 -2 -325 -4z"/>
<path d="M17945 19829 c-16 -5 -95 -23 -175 -39 -649 -131 -1415 -141 -2020
-24 -99 19 -128 20 -141 7 -6 -6 -37 -118 -69 -249 -107 -437 -230 -879 -415
-1494 -113 -375 -131 -457 -120 -564 40 -407 420 -685 1077 -788 193 -30 658
-33 838 -5 618 96 985 355 1134 798 51 153 56 218 51 644 -3 215 -7 406 -9
425 -2 19 -7 112 -11 205 -3 94 -15 325 -26 515 -33 589 -28 543 -51 563 -23
19 -21 19 -63 6z m-5 -136 c0 -21 7 -153 15 -293 22 -387 34 -628 40 -810 3
-91 8 -188 10 -216 10 -103 6 -653 -5 -720 -6 -38 -26 -113 -44 -167 -127
-372 -481 -628 -976 -706 -230 -36 -575 -43 -810 -17 -432 49 -782 200 -944
406 -86 110 -126 221 -126 350 0 93 10 134 105 445 152 497 314 1079 428 1535
38 152 46 175 63 174 10 -1 82 -11 159 -23 454 -71 1000 -81 1490 -25 157 17
404 58 506 83 41 11 77 19 82 20 4 1 7 -16 7 -36z"/>
<path d="M23862 16398 c-16 -16 -15 -53 1 -66 6 -6 28 -13 47 -16 38 -7 971
-91 1283 -116 67 -5 176 -14 242 -20 180 -15 636 -50 845 -65 41 -3 138 -9
215 -15 77 -5 174 -12 215 -15 592 -39 971 -62 1535 -90 55 -3 141 -7 190 -10
171 -9 712 -32 930 -40 88 -3 210 -7 270 -10 61 -3 274 -9 475 -15 201 -5 430
-12 510 -15 303 -10 1304 -20 2020 -20 663 0 1764 11 1925 20 33 1 209 6 390
10 182 3 344 8 360 10 17 2 134 6 260 10 127 3 264 8 305 10 41 2 143 7 225
10 83 3 193 8 245 10 52 3 192 10 310 15 118 6 253 12 300 15 47 3 171 10 275
15 193 11 926 56 1045 65 36 3 189 14 340 25 151 11 300 22 330 25 65 6 107 9
435 35 288 24 851 74 1070 95 83 9 175 18 205 20 30 3 73 7 95 10 22 2 65 7
95 10 204 20 235 25 248 42 16 22 15 35 -2 58 -14 19 -17 19 -192 1 -329 -33
-799 -78 -1067 -101 -95 -8 -197 -17 -227 -20 -30 -3 -138 -12 -240 -20 -102
-8 -210 -17 -240 -20 -30 -3 -116 -10 -190 -15 -74 -6 -162 -12 -195 -15 -71
-6 -543 -38 -875 -60 -129 -8 -266 -17 -305 -20 -38 -2 -115 -7 -170 -10 -256
-13 -477 -26 -550 -30 -44 -2 -136 -7 -205 -10 -69 -3 -161 -8 -205 -10 -44
-2 -147 -7 -230 -10 -82 -3 -190 -7 -240 -10 -49 -3 -166 -7 -260 -10 -93 -3
-222 -7 -285 -10 -63 -3 -212 -7 -330 -10 -118 -3 -262 -8 -320 -10 -458 -18
-1677 -27 -2665 -20 -610 4 -1144 9 -1185 10 -41 2 -217 6 -390 9 -173 4 -355
9 -405 11 -49 3 -178 7 -285 10 -107 3 -249 7 -315 10 -66 3 -181 7 -255 10
-166 6 -558 23 -700 30 -367 18 -1155 60 -1295 70 -38 2 -110 7 -160 10 -211
13 -784 52 -955 65 -74 6 -171 13 -215 15 -44 3 -100 8 -125 10 -25 3 -135 12
-245 20 -203 16 -624 51 -725 60 -30 2 -131 12 -225 20 -93 8 -192 17 -220 20
-209 20 -484 45 -505 45 -15 0 -31 -5 -38 -12z"/>
<path d="M25320 44013 c-17 -6 -40 -32 -40 -47 0 -5 64 -74 142 -153 141 -142
167 -160 196 -131 29 29 11 55 -131 196 -79 78 -145 142 -148 141 -2 0 -11 -3
-19 -6z"/>
<path d="M26155 44010 c-26 -11 -285 -273 -285 -289 0 -28 22 -51 48 -51 39 0
305 266 300 300 -4 30 -37 51 -63 40z"/>
<path d="M35623 43826 c-197 -64 -306 -271 -244 -463 42 -129 133 -216 260
-249 246 -62 490 170 441 421 -34 176 -167 295 -340 302 -45 2 -92 -3 -117
-11z m204 -101 c17 -7 52 -32 77 -55 184 -170 46 -490 -202 -467 -143 12 -241
122 -242 267 0 197 190 329 367 255z"/>
<path d="M25433 43298 c-74 -73 -138 -140 -143 -149 -13 -22 11 -63 39 -67 19
-3 51 23 162 134 94 94 139 146 139 161 0 25 -25 53 -47 53 -9 0 -77 -60 -150
-132z"/>
<path d="M25890 43410 c-11 -11 -20 -26 -20 -33 0 -21 283 -297 306 -297 26 0
44 18 44 45 0 22 -276 305 -298 305 -7 0 -21 -9 -32 -20z"/>
<path d="M34630 42970 c-11 -11 -20 -24 -20 -29 0 -23 42 -51 115 -76 44 -16
170 -64 279 -107 2075 -820 3987 -2197 5502 -3961 741 -862 1356 -1781 1838
-2747 239 -479 382 -808 546 -1258 39 -108 74 -188 84 -194 24 -14 55 0 62 28
10 40 -160 492 -342 911 -88 203 -328 696 -429 883 -527 972 -1160 1860 -1954
2745 -187 208 -830 849 -1041 1037 -1265 1129 -2619 1987 -4075 2583 -161 66
-525 205 -537 205 -4 0 -17 -9 -28 -20z"/>
<path d="M36671 42798 c-5 -13 -5 -30 0 -40 5 -9 71 -49 146 -89 1101 -579
2045 -1237 2983 -2077 226 -202 834 -808 1030 -1027 770 -858 1400 -1734 1922
-2675 99 -177 118 -205 140 -208 35 -4 60 31 48 64 -16 40 -208 380 -333 589
-1003 1670 -2354 3144 -3935 4296 -558 406 -1199 805 -1776 1104 -172 90 -211
100 -225 63z"/>
<path d="M9532 20132 c-14 -9 -114 -341 -114 -379 -1 -48 45 -69 74 -35 9 9
39 99 68 200 49 175 51 184 34 203 -18 20 -41 24 -62 11z"/>
<path d="M8792 19718 c-19 -19 -14 -56 11 -71 12 -8 100 -36 195 -63 126 -35
178 -45 189 -38 24 15 34 49 20 67 -12 14 -349 117 -385 117 -10 0 -23 -5 -30
-12z"/>
<path d="M9592 19488 c-16 -16 -15 -53 1 -66 13 -11 357 -112 382 -112 8 0 22
11 30 24 13 19 14 29 5 45 -6 12 -12 21 -13 21 -1 0 -81 23 -177 50 -186 53
-209 57 -228 38z"/>
<path d="M9296 19318 c-17 -29 -106 -338 -106 -372 0 -29 31 -50 60 -41 11 4
25 24 34 53 25 77 96 330 96 341 0 16 -30 41 -50 41 -11 0 -26 -10 -34 -22z"/>
<path d="M7707 17799 c-82 -19 -167 -81 -215 -156 -123 -194 -51 -445 156
-541 48 -22 71 -27 142 -26 113 0 188 32 264 115 70 75 98 147 98 249 0 129
-55 237 -155 303 -89 59 -192 79 -290 56z m199 -113 c203 -94 202 -392 -1
-492 -97 -47 -225 -24 -300 53 -78 80 -99 207 -51 308 26 57 99 127 148 142
61 20 148 15 204 -11z"/>
</g>
</svg>
